<svg version="1.1" id="Layer_1" xmlns="http://www.w3.org/2000/svg" xmlns:xlink="http://www.w3.org/1999/xlink" x="0px" y="0px"
	 width="100%" viewBox="0 0 1024 1024" enable-background="new 0 0 1024 1024" xml:space="preserve">
<path fill="#020202" opacity="1.000000" stroke="none" 
	d="
M1.000000,351.000000 
	C1.000000,234.000015 1.000000,117.500031 1.000000,1.000031 
	C342.333282,1.000021 683.666565,1.000021 1025.000000,1.000010 
	C1025.000000,342.333252 1025.000000,683.666504 1025.000000,1024.999756 
	C683.666809,1024.999878 342.333618,1024.999878 1.000204,1025.000000 
	C1.000000,800.500000 1.000000,576.000000 1.000000,351.000000 
M531.927917,617.068237 
	C531.927917,617.068237 531.886719,617.153503 531.867249,617.801636 
	C532.538940,618.228516 533.210632,618.655396 534.246460,619.406921 
	C534.475098,619.638184 534.701111,619.872009 534.909485,620.774841 
	C535.894653,621.547546 536.879883,622.320251 538.300476,623.482422 
	C538.818298,624.061279 539.336121,624.640137 539.927429,625.948181 
	C542.487061,628.187439 543.119080,630.940308 543.114258,634.355774 
	C543.012085,706.842285 543.040344,779.329041 543.040710,851.815735 
	C543.040833,875.144470 543.032410,898.473267 543.032654,921.802002 
	C543.032715,924.308533 543.498474,926.964294 539.616577,927.113770 
	C535.512329,927.271729 531.415955,928.031555 527.321960,927.987366 
	C513.735352,927.840759 500.152252,927.370117 486.565582,927.206604 
	C482.830933,927.161621 481.640747,925.666504 481.787872,922.047607 
	C482.017761,916.392578 481.817200,910.720398 481.816284,905.055481 
	C481.805054,836.573059 481.817932,768.090637 481.679657,699.608521 
	C481.675781,697.694031 480.063873,695.782837 478.738495,693.426758 
	C477.529144,692.232117 476.319794,691.037476 475.112732,689.166077 
	C473.652161,687.866455 472.191559,686.566895 470.266754,684.885620 
	C469.562775,684.174744 468.858795,683.463867 468.138184,682.104858 
	C467.339966,681.483765 466.541779,680.862610 465.284882,679.905579 
	C464.786682,679.337036 464.288483,678.768555 463.916809,677.445312 
	C462.878540,676.695862 461.840302,675.946350 460.424316,674.909058 
	C460.185150,674.698669 459.976074,674.461792 459.862244,673.489441 
	C456.170471,669.494080 452.619354,665.356445 448.753845,661.536865 
	C443.012634,655.864014 437.048981,650.416260 430.761658,644.598389 
	C430.544617,644.346863 430.327545,644.095337 430.119080,643.159973 
	C427.659332,640.879150 425.199615,638.598389 422.753784,636.238464 
	C422.753784,636.238464 422.675568,636.256653 422.669525,635.580811 
	C412.963318,625.035583 403.333099,614.412964 392.794830,604.714172 
	C392.261932,604.965515 391.729065,605.216858 391.196167,605.468201 
	C391.196167,609.528381 391.196259,613.588562 391.196167,617.648743 
	C391.192505,743.460388 391.189392,869.272034 391.179199,995.083679 
	C391.179077,996.746338 391.309204,998.450623 391.002991,1000.064148 
	C389.946411,1005.632507 390.936676,1007.490723 396.548401,1008.745178 
	C404.087006,1010.430298 411.683502,1011.856140 419.254333,1013.397278 
	C442.339111,1018.096375 465.697906,1021.044312 489.198029,1021.590088 
	C516.671814,1022.228149 544.232361,1022.984863 571.571045,1018.793152 
	C590.710876,1015.858521 609.827881,1012.775146 628.966309,1009.830994 
	C632.977478,1009.213989 634.681946,1006.870544 634.757385,1003.050476 
	C634.790283,1001.388611 634.665833,999.724243 634.666870,998.061035 
	C634.702087,940.762634 634.752747,883.464294 634.781494,826.165894 
	C634.801392,786.521912 634.782288,746.877869 634.798950,707.233887 
	C634.825256,644.508606 634.898743,581.783325 634.893921,519.058044 
	C634.888000,442.754211 634.807861,366.450348 634.785156,290.146515 
	C634.765442,224.001907 634.786743,157.857300 634.777832,91.712685 
	C634.774780,68.886742 634.622070,46.059822 634.817627,23.235746 
	C634.852539,19.163240 633.658997,17.090929 629.719543,16.335201 
	C626.185669,15.657289 622.715271,14.655966 619.198425,13.881154 
	C595.956909,8.760672 572.440491,5.663017 548.696167,4.124135 
	C544.073120,3.824514 542.112671,5.128346 542.224548,10.071203 
	C542.650879,28.902349 542.986511,47.740028 542.995178,66.575432 
	C543.060913,209.552505 543.041260,352.529602 543.048157,495.506714 
	C543.048218,497.253906 543.048096,499.001099 543.048096,501.960632 
	C538.304199,497.798920 534.542786,494.499054 530.361328,490.823914 
	C529.851257,490.273376 529.341248,489.722870 528.910706,488.459991 
	C528.064087,487.276947 527.364319,485.946655 526.348511,484.933197 
	C513.154663,471.770844 499.952515,458.616394 486.661560,445.552429 
	C483.569031,442.512787 481.692932,439.307526 481.696014,434.729675 
	C481.791687,292.793945 481.797180,150.858170 481.800476,8.922391 
	C481.800507,7.481018 481.585846,6.039640 481.438660,4.186323 
	C479.468445,4.186323 477.814697,4.032797 476.197479,4.210904 
	C464.534790,5.495330 452.799103,6.365593 441.241760,8.296187 
	C425.988251,10.844208 410.879608,14.256718 395.701508,17.261248 
	C391.760834,18.041313 389.560486,19.880209 390.035645,24.356878 
	C390.625153,29.910440 391.026947,35.506977 391.084900,41.089363 
	C391.228546,54.915947 391.128265,68.745049 391.129669,82.573135 
	C391.142761,212.021545 391.130615,341.469971 391.327484,470.918121 
	C391.332153,473.997925 393.027985,477.622375 395.065491,480.040070 
	C399.556702,485.369171 404.695251,490.167206 409.719299,495.027252 
	C412.643646,497.856201 415.857452,500.385895 418.992645,502.999908 
	C418.992645,502.999908 418.952423,503.058624 419.013855,503.736084 
	C425.234436,510.131317 431.413513,516.567810 437.704987,522.892517 
	C439.266174,524.461975 441.191345,525.669373 442.996704,527.000000 
	C442.996704,527.000000 442.958069,527.050659 442.959869,527.740051 
	C448.415527,533.041565 453.871155,538.343140 459.782593,544.052246 
	C460.625092,544.937927 461.467560,545.823669 462.295074,547.378723 
	C463.775879,548.640808 465.256653,549.902832 467.210236,551.581848 
	C468.222565,552.638611 469.234863,553.695374 470.227600,555.402039 
	C471.082611,555.981812 471.937592,556.561584 473.281860,557.553528 
	C474.466553,558.792358 475.651245,560.031250 476.852264,561.916077 
	C477.651276,562.530212 478.450287,563.144348 479.616241,564.059814 
	C479.851593,564.273193 480.064026,564.507385 480.168030,565.475159 
	C482.856384,567.903748 485.544739,570.332336 488.613861,573.055725 
	C488.867706,573.255249 489.094116,573.482178 489.184143,574.448425 
	C495.443573,580.642944 501.703003,586.837463 508.000000,593.000000 
	C508.000000,593.000000 507.967865,593.037415 507.900787,593.730774 
	C515.240845,600.841614 522.580933,607.952454 529.995728,615.013000 
	C529.995728,615.013000 529.934814,615.079773 529.900208,615.726746 
	C530.548767,616.189758 531.197327,616.652710 531.927917,617.068237 
M198.794678,240.801651 
	C198.794678,240.801651 198.702942,240.661667 199.390488,240.746704 
	C201.630936,237.914154 203.871368,235.081604 206.319550,231.727631 
	C206.619598,231.515121 206.919662,231.302612 207.899292,231.121964 
	C214.292984,224.481552 220.686676,217.841156 227.399246,210.682495 
	C228.176834,210.044556 228.954422,209.406616 230.447800,208.929321 
	C232.536346,206.832184 234.624908,204.735062 237.037109,202.186066 
	C237.606232,201.717300 238.175354,201.248535 239.456696,200.929901 
	C241.327332,199.011261 243.197952,197.092636 245.324051,194.668518 
	C245.800812,194.373581 246.277573,194.078644 247.489914,193.905701 
	C248.665161,192.785294 249.840408,191.664871 251.661072,190.362656 
	C251.844406,190.490509 252.027725,190.618347 252.051025,191.705933 
	C252.055191,202.188644 252.066010,212.671341 252.062378,223.154053 
	C252.048706,262.590698 251.984253,302.027527 252.136414,341.463501 
	C252.144897,343.662933 253.928772,345.855530 254.965027,348.034027 
	C254.965027,348.034027 254.947815,348.112732 254.897430,348.801636 
	C258.902039,352.547211 262.906647,356.292816 266.983429,360.016479 
	C266.983429,360.016479 266.961823,360.088806 266.884033,360.761810 
	C267.876007,361.524780 268.867981,362.287720 270.333954,363.286316 
	C270.541412,363.566559 270.748871,363.846802 270.886200,364.801971 
	C271.688385,365.463593 272.490540,366.125214 273.816803,367.173828 
	C276.271698,369.710968 278.726593,372.248108 281.032349,375.509766 
	C285.942902,380.746307 290.758820,386.076416 295.804413,391.179413 
	C298.279236,393.682404 301.180328,395.763916 304.471283,398.322449 
	C305.635132,399.586304 306.798981,400.850159 307.898773,402.799103 
	C309.579163,404.201416 311.259552,405.603760 313.534729,407.323608 
	C318.090027,412.135773 322.645325,416.947968 327.070282,422.495026 
	C328.422974,423.614441 329.775665,424.733856 331.023895,425.983521 
	C331.023895,425.983521 331.147919,425.871643 331.068024,426.582184 
	C332.642029,428.448029 334.063019,430.479614 335.842773,432.122620 
	C337.069580,433.255157 338.793121,433.849640 340.294647,434.684601 
	C340.853180,432.910034 341.891510,431.137390 341.898499,429.360657 
	C342.010315,401.056976 341.999420,372.752747 341.998383,344.448669 
	C341.994934,250.703903 341.984070,156.959122 341.976257,63.214348 
	C341.975494,53.952232 341.976196,44.690113 341.976196,34.744972 
	C339.373291,35.326424 337.573364,35.497387 335.950775,36.126045 
	C315.646088,43.992908 295.749054,52.786846 276.870178,63.670315 
	C261.592224,72.477905 246.572006,81.733940 231.491821,90.880699 
	C230.207703,91.659569 229.334045,93.115128 228.071335,94.082848 
	C228.071335,94.082848 228.239838,94.285454 227.526962,94.134689 
	C224.146820,96.872086 220.766678,99.609489 217.317703,102.341225 
	C217.317703,102.341225 217.308319,102.409645 216.611420,102.160271 
	C214.542526,103.890663 212.473618,105.621056 210.332382,107.355667 
	C210.332382,107.355667 210.326874,107.427895 209.627106,107.160484 
	C205.398987,110.733467 201.170868,114.306458 196.954681,117.961662 
	C196.954681,117.961662 196.875549,117.936333 196.166595,117.837357 
	C194.761490,119.189438 193.356384,120.541519 191.968506,121.972672 
	C191.968506,121.972672 191.891815,121.946831 191.174103,121.827667 
	C186.877853,125.641685 182.581589,129.455704 178.115051,133.101379 
	C178.115051,133.101379 178.247086,133.301132 177.544571,133.103455 
	C174.502701,136.188629 171.460815,139.273788 168.340210,142.343323 
	C168.340210,142.343323 168.346039,142.423386 167.657410,142.281555 
	C160.316101,149.174255 152.957092,156.048431 145.675735,163.003876 
	C145.220047,163.439163 145.372131,164.510681 144.976700,165.826584 
	C144.121918,166.667480 143.267136,167.508362 141.717758,168.228256 
	C132.120743,179.215805 122.373558,190.077637 113.010010,201.260681 
	C109.828468,205.060440 107.614235,209.670151 104.989464,213.977768 
	C104.989464,213.977768 104.915497,213.965775 104.218460,213.930115 
	C103.448189,214.755737 102.536621,215.489166 101.928703,216.420746 
	C91.742317,232.030624 80.870941,247.252502 71.644592,263.412872 
	C62.792740,278.917267 54.937901,295.096130 47.962463,311.537537 
	C40.689129,328.681152 34.684380,346.389252 28.708656,364.048035 
	C24.647013,376.050568 20.901348,388.245575 18.250422,400.619293 
	C14.521067,418.026825 11.593891,435.628601 8.971490,453.243805 
	C6.840469,467.558350 4.655191,481.989746 4.296831,496.414124 
	C3.752478,518.325012 4.654565,540.277710 5.228101,562.205200 
	C5.332211,566.185547 6.805947,570.130005 7.837416,574.815430 
	C7.833201,575.561462 7.828988,576.307495 7.277283,577.560486 
	C6.182693,581.958435 8.275591,582.983887 12.320515,582.978943 
	C66.857529,582.912048 121.394684,582.968140 175.931747,582.913086 
	C177.333633,582.911682 178.734589,581.996094 180.533539,581.161072 
	C180.700623,581.106934 180.867691,581.052734 181.816803,581.061768 
	C184.316025,580.334290 186.809738,578.998657 189.315353,578.975891 
	C208.603485,578.800781 227.894318,578.943909 247.183228,578.819275 
	C250.472443,578.798035 252.208160,579.904358 252.372360,584.056091 
	C252.423599,589.991943 252.474823,595.927856 252.221375,602.778381 
	C252.319138,608.231445 252.416901,613.684570 252.366196,620.041992 
	C252.419434,627.644043 252.472672,635.246033 252.248245,643.593567 
	C252.332214,644.108948 252.416168,644.624329 252.364182,646.028442 
	C252.413055,649.640686 252.461929,653.252991 252.217346,657.762451 
	C252.326385,660.889709 252.435425,664.016907 252.390717,668.046326 
	C252.423721,678.982544 252.456741,689.918762 252.200928,701.777588 
	C252.307816,710.232849 252.414688,718.688049 252.384262,728.015137 
	C252.424271,730.962402 252.464279,733.909607 252.220123,737.654419 
	C252.315887,738.481995 252.411667,739.309509 252.370163,741.010742 
	C252.421677,743.961670 252.473190,746.912537 252.217285,750.779175 
	C252.217285,778.091553 252.217285,805.403870 252.217285,833.658569 
	C248.331589,831.455750 245.582565,829.897278 242.770798,828.204102 
	C242.770798,828.204102 242.637390,828.138550 242.574997,827.491150 
	C238.938522,824.096313 235.256073,820.749207 231.673248,817.298645 
	C212.140472,798.486694 193.617691,778.782898 177.279892,757.060059 
	C161.078415,735.518372 146.024887,713.195190 134.492691,688.853577 
	C125.419746,669.702759 117.958031,649.777954 110.104324,630.067932 
	C108.178894,625.235779 105.763115,622.973022 100.287758,623.024719 
	C74.458015,623.268982 48.624779,623.132263 22.792814,623.159973 
	C17.544962,623.165588 16.247608,624.852539 17.644842,629.830200 
	C19.343672,635.882324 21.255186,641.876587 22.867889,647.950806 
	C29.713270,673.733826 39.910568,698.254089 51.315201,722.261658 
	C63.657314,748.242737 77.692192,773.316406 94.171410,796.936768 
	C98.774307,803.534302 104.001396,809.696411 109.083801,816.738098 
	C110.176308,818.384521 111.142845,820.133179 112.382172,821.660461 
	C119.360954,830.260437 126.089142,839.092896 133.505692,847.301331 
	C143.273178,858.111633 153.339218,868.683777 163.767120,878.855774 
	C172.155975,887.038696 181.130127,894.645691 190.121078,902.178223 
	C195.502182,906.686462 201.415237,910.559814 207.439301,915.299927 
	C220.051025,924.203003 232.475800,933.387756 245.333008,941.920959 
	C255.814362,948.877380 266.440857,955.798767 277.665985,961.409180 
	C296.194061,970.669495 315.270172,978.831116 334.087250,987.516541 
	C341.001587,990.707947 342.825623,989.645752 342.825134,982.173462 
	C342.819183,893.614746 342.817993,805.056030 342.811066,716.497314 
	C342.809143,691.935913 342.867188,667.374207 342.752197,642.813293 
	C342.692261,630.010132 342.111450,617.208130 342.133392,604.406189 
	C342.161560,587.980957 342.661469,571.556885 342.770508,555.131104 
	C342.892120,536.811646 342.802460,518.490784 342.806244,500.170502 
	C342.807983,491.850677 341.364197,490.221191 333.058563,490.293365 
	C323.299713,490.378174 313.543610,490.777222 303.738190,490.755615 
	C303.738190,490.755615 303.385376,490.679443 303.385376,490.679443 
	C303.385376,490.679443 303.237244,491.045288 302.458954,491.034393 
	C301.942657,491.081696 301.426361,491.128998 300.534515,490.653351 
	C299.381927,490.815094 298.229370,490.976837 296.363647,491.070923 
	C295.887390,491.093658 295.411163,491.116364 294.669861,490.697144 
	C294.129639,490.831024 293.589386,490.964905 292.324036,491.040527 
	C291.839142,491.038757 291.354279,491.037018 290.779724,490.706757 
	C290.561676,490.815704 290.343628,490.924652 289.537292,491.037292 
	C289.341858,491.053833 289.146423,491.070374 288.565308,490.570282 
	C287.400848,490.752899 286.236420,490.935516 284.460358,491.038544 
	C284.254944,491.030518 284.049500,491.022522 283.735870,490.679657 
	C283.563568,490.441467 283.359314,490.409882 282.369049,490.408966 
	C281.863098,490.485352 281.357117,490.561737 280.217987,490.317291 
	C279.156860,490.559723 278.095703,490.802155 276.450989,491.017120 
	C276.256470,491.026093 276.061951,491.035065 275.775238,490.726135 
	C275.775238,490.726135 275.355560,490.639526 275.355560,490.639526 
	C275.355560,490.639526 275.123932,491.040527 274.511658,491.007965 
	C274.307434,491.016022 274.103210,491.024048 273.802307,490.701080 
	C273.585297,490.814575 273.368286,490.928101 272.526764,491.083435 
	C272.321564,491.121216 272.116364,491.158997 271.653931,490.764954 
	C271.135803,490.921661 270.617676,491.078400 269.337708,491.163483 
	C268.575623,491.208893 267.813538,491.254303 266.117889,491.127472 
	C210.307938,491.395996 154.497971,491.663513 98.688072,491.945465 
	C98.031639,491.948792 97.376152,492.138794 96.306953,492.026581 
	C96.051392,491.834625 95.864929,491.589966 95.914307,490.322083 
	C95.738327,489.702026 95.562340,489.082001 95.253563,487.727417 
	C95.324493,486.486816 95.395424,485.246216 96.302795,483.765564 
	C97.213539,476.410431 97.771149,468.990875 99.098869,461.711823 
	C103.741074,436.261475 108.548836,410.749054 117.528435,386.454376 
	C125.198769,365.701996 134.650223,345.606812 143.360336,325.240845 
	C145.020615,321.358795 146.897995,317.569580 148.858261,313.841248 
	C148.858261,313.841248 148.710938,313.691071 149.422729,313.711700 
	C151.852783,309.061554 154.282822,304.411377 156.924988,299.901428 
	C156.924988,299.901428 156.740219,299.726746 157.440445,299.722198 
	C157.801086,299.387085 158.241547,299.106140 158.510849,298.709076 
	C167.048065,286.121521 175.608429,273.549286 184.060913,260.904907 
	C185.928772,258.110748 187.405838,255.055328 189.031815,252.043625 
	C189.031815,252.043625 189.113922,252.052887 189.815704,252.087601 
	C190.559021,250.766129 191.302353,249.444656 192.245926,247.629059 
	C192.533401,247.430847 192.820877,247.232635 193.801697,247.085999 
	C195.419037,244.961136 197.036377,242.836288 198.794678,240.801651 
M882.804565,317.625458 
	C889.614319,329.434204 896.377319,341.270355 903.266541,353.032532 
	C904.996704,355.986450 904.613831,358.187225 902.137268,360.501801 
	C897.029663,365.275299 892.031616,370.170502 887.096375,375.123199 
	C852.525940,409.815552 817.998962,444.551300 783.426636,479.241821 
	C751.799316,510.977295 720.167480,542.708496 688.424255,574.327759 
	C685.554199,577.186646 684.598328,580.134888 684.601135,584.047607 
	C684.695557,716.866394 684.706055,849.685242 684.728577,982.504089 
	C684.728882,984.274414 684.728577,986.044678 684.728577,988.255432 
	C686.414490,987.832031 687.370605,987.678833 688.264893,987.354736 
	C730.647949,971.994812 769.633667,950.258057 806.257202,924.169373 
	C835.369019,903.431580 861.890564,879.759949 885.938904,853.287537 
	C909.062134,827.833191 929.833313,800.635254 947.851807,771.337463 
	C979.404541,720.033386 1000.972412,664.842834 1011.631836,605.552917 
	C1017.949280,570.414185 1020.981628,534.941895 1020.399048,499.180573 
	C1020.315369,494.045105 1018.826843,492.782745 1013.838989,492.809875 
	C976.347656,493.013611 938.854736,492.934021 901.362366,492.892517 
	C899.512329,492.890442 897.662842,492.418365 894.675354,492.009430 
	C897.180115,489.159943 898.793518,487.121552 900.611755,485.286102 
	C932.824951,452.768921 965.045044,420.258484 997.333191,387.815857 
	C999.685791,385.452087 1000.439209,383.363586 999.611511,379.907257 
	C993.543457,354.567230 984.875916,330.128815 974.672607,306.202332 
	C957.370850,265.630341 934.061951,228.634979 906.689270,194.240570 
	C881.070679,162.050262 851.303833,133.963898 818.731628,108.846230 
	C783.301086,81.524422 744.659363,59.817085 703.307373,42.870811 
	C697.425842,40.460522 691.357117,38.507298 685.201172,36.279625 
	C685.201172,198.536682 685.201172,359.812744 685.201172,522.138611 
	C687.132263,520.385254 688.253357,519.460632 689.268860,518.431824 
	C715.712708,491.642883 742.184326,464.880951 768.487488,437.954437 
	C770.129211,436.273895 771.231628,433.292725 771.243652,430.909851 
	C771.431396,393.748688 771.421692,356.586395 771.408997,319.424377 
	C771.394897,278.094025 771.317200,236.763641 771.339844,195.433334 
	C771.340759,193.722153 772.079590,192.011383 772.474670,190.300415 
	C774.067017,190.930908 775.915588,191.231857 777.213684,192.240921 
	C799.523010,209.583038 819.676147,229.176147 837.369629,251.198700 
	C854.057861,271.969971 869.195984,293.843842 882.804565,317.625458 
M837.087280,314.357117 
	C830.159119,304.677490 824.094238,294.316803 814.711426,284.623291 
	C814.053528,288.279999 813.367798,290.334656 813.360962,292.391541 
	C813.255432,324.380951 813.218018,356.370636 813.252869,388.360168 
	C813.254761,390.130859 814.024719,391.900696 814.524353,394.045197 
	C816.036133,393.173981 816.879700,392.897644 817.436157,392.336548 
	C830.797058,378.865112 844.072205,365.308105 857.505493,351.909454 
	C860.491943,348.930664 860.414612,346.106293 858.184998,343.052643 
	C851.325439,333.657776 844.382019,324.324158 837.087280,314.357117 
M215.896530,691.500000 
	C215.885895,671.510620 215.885513,651.521301 215.858932,631.531921 
	C215.849869,624.714844 214.323181,623.124756 207.807495,623.122742 
	C189.151489,623.117004 170.495438,623.111572 151.839523,623.158447 
	C146.026031,623.173035 145.042511,624.751282 147.179764,630.147949 
	C155.807022,651.932190 165.325653,673.362183 178.276077,692.905090 
	C187.866638,707.377808 198.931122,720.878296 209.484146,734.701050 
	C210.449203,735.965088 212.471970,736.421570 214.003601,737.253052 
	C214.644775,735.495178 215.821915,733.743286 215.841660,731.978455 
	C215.988831,718.820435 215.906754,705.659790 215.896530,691.500000 
z"/>
<path fill="#FDFDFD" opacity="1.000000" stroke="none" 
	d="
M480.253571,564.762390 
	C480.064026,564.507385 479.851593,564.273193 479.414215,563.578979 
	C478.420105,562.488770 477.628021,561.879456 476.835938,561.270081 
	C475.651245,560.031250 474.466553,558.792358 473.048187,557.019287 
	C471.958740,555.907349 471.102936,555.329773 470.247162,554.752136 
	C469.234863,553.695374 468.222565,552.638611 466.958496,551.040283 
	C465.241180,549.235596 463.775604,547.972473 462.310028,546.709412 
	C461.467560,545.823669 460.625092,544.937927 459.532318,543.507629 
	C453.840729,537.658875 448.399384,532.354797 442.958069,527.050659 
	C442.958069,527.050659 442.996704,527.000000 442.933716,526.685059 
	C434.897980,518.599670 426.925201,510.829163 418.952423,503.058624 
	C418.952423,503.058624 418.992645,502.999908 418.905762,502.693176 
	C411.616760,495.001221 404.519104,487.509766 397.165283,480.278809 
	C393.862671,477.031433 392.368652,473.591522 392.376221,468.841187 
	C392.510254,384.852631 392.491302,300.863831 392.493347,216.875076 
	C392.494904,153.048813 392.523529,89.222443 392.370789,25.396532 
	C392.360809,21.230623 393.605774,19.467182 397.626373,18.711538 
	C405.141205,17.299177 412.515320,15.086622 420.054718,13.866587 
	C437.466766,11.048950 454.936859,8.585633 472.399292,6.089362 
	C474.781128,5.748875 477.253601,6.042447 479.878113,6.042447 
	C479.980499,7.268401 480.105927,8.070940 480.106232,8.873527 
	C480.125641,58.198383 480.136383,107.523239 480.144531,156.848099 
	C480.159760,248.993225 480.207153,341.138397 480.102692,433.283386 
	C480.096344,438.876984 481.780426,443.041016 485.786560,446.950073 
	C498.303864,459.164215 510.506439,471.700409 522.881348,484.061401 
	C524.725891,485.903900 526.841125,487.475433 528.831177,489.172333 
	C529.341248,489.722870 529.851257,490.273376 530.570679,491.358337 
	C533.879272,495.132629 536.917358,498.435211 540.125122,501.563873 
	C540.837158,502.258362 542.360657,502.862244 543.120850,502.552277 
	C543.844543,502.257111 544.389465,500.728119 544.435791,499.715179 
	C544.580322,496.557251 544.431824,493.386810 544.431396,490.221222 
	C544.410461,330.090057 544.392395,169.958862 544.391541,9.827695 
	C544.391541,8.717631 544.632812,7.607566 544.812866,6.053669 
	C546.665527,6.053669 548.299072,5.994394 549.927185,6.062509 
	C576.828247,7.187925 603.140442,12.139387 629.296570,18.178326 
	C632.692932,18.962475 632.689758,21.089569 632.690186,23.733240 
	C632.710999,144.036392 632.796814,264.339539 632.800903,384.642670 
	C632.804199,480.283356 632.699036,575.924011 632.665649,671.564697 
	C632.627197,781.702209 632.594360,891.839722 632.673767,1001.977173 
	C632.676636,1005.920044 631.518555,1007.653564 627.590088,1008.197327 
	C602.051086,1011.732361 576.637451,1016.756409 550.984863,1018.763733 
	C499.718109,1022.775391 448.829193,1018.780640 398.588684,1007.322205 
	C393.861420,1006.244080 392.270050,1004.569885 392.276642,999.515869 
	C392.444641,870.553711 392.413788,741.591187 392.441132,612.628784 
	C392.441437,611.284363 392.754822,609.940125 393.113037,607.060791 
	C398.538422,612.638123 402.841370,617.216064 407.315460,621.620056 
	C412.355011,626.580688 417.548828,631.384583 422.675568,636.256653 
	C422.675568,636.256653 422.753784,636.238464 422.743073,636.621094 
	C425.191742,639.283752 427.651123,641.563782 430.110504,643.843811 
	C430.327545,644.095337 430.544617,644.346863 430.977539,645.074463 
	C440.727997,655.099854 450.262512,664.649109 459.797058,674.198364 
	C459.976074,674.461792 460.185150,674.698669 460.642944,675.373718 
	C461.837830,676.625610 462.814056,677.412842 463.790283,678.200073 
	C464.288483,678.768555 464.786682,679.337036 465.508881,680.404053 
	C466.540192,681.519348 467.347504,682.136230 468.154816,682.753052 
	C468.858795,683.463867 469.562775,684.174744 470.503052,685.419067 
	C472.196411,687.249268 473.653412,688.546082 475.110413,689.842896 
	C476.319794,691.037476 477.529144,692.232117 478.986206,694.073975 
	C479.555206,702.340393 480.147308,709.959167 480.155487,717.578674 
	C480.227966,785.054565 480.197876,852.530579 480.195129,920.006592 
	C480.194794,928.081726 480.317444,928.715698 488.449738,928.866638 
	C505.084717,929.175537 521.730347,928.929138 538.371399,928.872925 
	C542.611328,928.858643 544.465515,927.019531 544.448120,922.395874 
	C544.293945,881.405518 544.346680,840.414429 544.353638,799.423523 
	C544.362976,744.101257 544.372314,688.778931 544.433228,633.456726 
	C544.437317,629.742737 544.149353,626.430237 539.853943,625.218994 
	C539.336121,624.640137 538.818298,624.061279 538.096191,622.954102 
	C536.902832,621.653381 535.913757,620.880859 534.924622,620.108337 
	C534.701111,619.872009 534.475098,619.638184 534.068604,618.923950 
	C533.222717,618.011780 532.554688,617.582642 531.886719,617.153503 
	C531.886719,617.153503 531.927917,617.068237 531.887817,616.777344 
	C531.210083,616.017517 530.572449,615.548645 529.934814,615.079773 
	C529.934814,615.079773 529.995728,615.013000 529.953979,614.696167 
	C522.597412,607.265320 515.282654,600.151367 507.967865,593.037415 
	C507.967865,593.037415 508.000000,593.000000 507.984131,592.672485 
	C501.743195,586.142151 495.518158,579.939270 489.293091,573.736450 
	C489.094116,573.482178 488.867706,573.255249 488.383118,572.572205 
	C485.519440,569.646545 482.886505,567.204468 480.253571,564.762390 
z"/>
<path fill="#FDFDFD" opacity="1.000000" stroke="none" 
	d="
M882.589905,317.330322 
	C869.195984,293.843842 854.057861,271.969971 837.369629,251.198700 
	C819.676147,229.176147 799.523010,209.583038 777.213684,192.240921 
	C775.915588,191.231857 774.067017,190.930908 772.474670,190.300415 
	C772.079590,192.011383 771.340759,193.722153 771.339844,195.433334 
	C771.317200,236.763641 771.394897,278.094025 771.408997,319.424377 
	C771.421692,356.586395 771.431396,393.748688 771.243652,430.909851 
	C771.231628,433.292725 770.129211,436.273895 768.487488,437.954437 
	C742.184326,464.880951 715.712708,491.642883 689.268860,518.431824 
	C688.253357,519.460632 687.132263,520.385254 685.201172,522.138611 
	C685.201172,359.812744 685.201172,198.536682 685.201172,36.279625 
	C691.357117,38.507298 697.425842,40.460522 703.307373,42.870811 
	C744.659363,59.817085 783.301086,81.524422 818.731628,108.846230 
	C851.303833,133.963898 881.070679,162.050262 906.689270,194.240570 
	C934.061951,228.634979 957.370850,265.630341 974.672607,306.202332 
	C984.875916,330.128815 993.543457,354.567230 999.611511,379.907257 
	C1000.439209,383.363586 999.685791,385.452087 997.333191,387.815857 
	C965.045044,420.258484 932.824951,452.768921 900.611755,485.286102 
	C898.793518,487.121552 897.180115,489.159943 894.675354,492.009430 
	C897.662842,492.418365 899.512329,492.890442 901.362366,492.892517 
	C938.854736,492.934021 976.347656,493.013611 1013.838989,492.809875 
	C1018.826843,492.782745 1020.315369,494.045105 1020.399048,499.180573 
	C1020.981628,534.941895 1017.949280,570.414185 1011.631836,605.552917 
	C1000.972412,664.842834 979.404541,720.033386 947.851807,771.337463 
	C929.833313,800.635254 909.062134,827.833191 885.938904,853.287537 
	C861.890564,879.759949 835.369019,903.431580 806.257202,924.169373 
	C769.633667,950.258057 730.647949,971.994812 688.264893,987.354736 
	C687.370605,987.678833 686.414490,987.832031 684.728577,988.255432 
	C684.728577,986.044678 684.728882,984.274414 684.728577,982.504089 
	C684.706055,849.685242 684.695557,716.866394 684.601135,584.047607 
	C684.598328,580.134888 685.554199,577.186646 688.424255,574.327759 
	C720.167480,542.708496 751.799316,510.977295 783.426636,479.241821 
	C817.998962,444.551300 852.525940,409.815552 887.096375,375.123199 
	C892.031616,370.170502 897.029663,365.275299 902.137268,360.501801 
	C904.613831,358.187225 904.996704,355.986450 903.266541,353.032532 
	C896.377319,341.270355 889.614319,329.434204 882.589905,317.330322 
M771.154114,612.500000 
	C771.224060,687.299866 771.294006,762.099731 771.363953,836.899658 
	C771.937073,837.058838 772.510193,837.218018 773.083313,837.377197 
	C775.140991,835.820557 777.457764,834.511169 779.215637,832.668457 
	C794.138489,817.025635 809.516907,801.771484 823.710510,785.487122 
	C873.644287,728.197937 905.866821,662.038330 921.168152,587.619263 
	C922.271423,582.253418 921.752930,581.538818 916.114136,581.507874 
	C899.455139,581.416260 882.795532,581.407043 866.136169,581.401001 
	C836.648682,581.390259 807.161255,581.398987 777.673767,581.415649 
	C771.724915,581.419067 771.109314,582.033020 771.099731,588.009949 
	C771.087158,595.839905 771.138916,603.669922 771.154114,612.500000 
z"/>
<path fill="#FCFCFD" opacity="1.000000" stroke="none" 
	d="
M7.824773,577.053528 
	C7.828988,576.307495 7.833201,575.561462 7.901402,574.022339 
	C7.416018,565.761475 6.710278,558.301392 6.342268,550.824768 
	C3.646952,496.066101 9.293019,442.180481 23.164837,389.126556 
	C37.285496,335.120880 58.680679,284.323822 89.367088,237.570526 
	C94.536964,229.693802 99.732056,221.833603 104.915497,213.965775 
	C104.915497,213.965775 104.989464,213.977768 105.306595,213.891937 
	C112.985100,204.429718 120.266205,194.988785 127.736900,185.700333 
	C132.483002,179.799438 137.510849,174.125153 142.412354,168.349243 
	C143.267136,167.508362 144.121918,166.667480 145.451553,165.533615 
	C147.595276,163.645767 149.315018,162.100388 150.923904,160.447128 
	C156.751419,154.458817 162.541702,148.434265 168.346039,142.423386 
	C168.346039,142.423386 168.340210,142.343323 168.720993,142.355164 
	C172.150223,139.345062 175.198654,136.323105 178.247086,133.301132 
	C178.247086,133.301132 178.115051,133.101379 178.547958,133.192322 
	C183.284515,129.504440 187.588165,125.725632 191.891815,121.946831 
	C191.891815,121.946831 191.968506,121.972672 192.295013,121.955917 
	C194.039536,120.604874 195.457535,119.270599 196.875549,117.936325 
	C196.875549,117.936333 196.954681,117.961662 197.297638,117.955109 
	C201.869370,114.441673 206.098114,110.934776 210.326874,107.427887 
	C210.326874,107.427895 210.332382,107.355667 210.710678,107.360931 
	C213.162094,105.714012 215.235214,104.061836 217.308319,102.409653 
	C217.308319,102.409645 217.317703,102.341225 217.700348,102.350975 
	C221.468613,99.668968 224.854233,96.977211 228.239838,94.285454 
	C228.239838,94.285454 228.071335,94.082848 228.523712,94.174088 
	C229.843491,93.769417 230.741257,93.319572 231.573929,92.770935 
	C261.102386,73.314972 291.870422,56.147141 324.521240,42.464909 
	C329.477844,40.387856 334.511017,38.493488 339.667603,36.451733 
	C339.667603,169.006531 339.667603,300.631683 339.667603,433.075256 
	C336.340057,430.261749 333.743988,428.066711 331.147919,425.871643 
	C331.147919,425.871643 331.023895,425.983521 331.041138,425.588196 
	C329.772430,424.048615 328.486511,422.904388 327.200592,421.760162 
	C322.645325,416.947968 318.090027,412.135773 313.236389,406.829468 
	C311.279633,404.928192 309.621216,403.521088 307.962799,402.114014 
	C306.798981,400.850159 305.635132,399.586304 304.199524,397.839539 
	C296.345642,389.832855 288.763550,382.309052 281.181458,374.785248 
	C278.726593,372.248108 276.271698,369.710968 273.571106,366.647400 
	C272.535736,365.456329 271.746033,364.791687 270.956329,364.127045 
	C270.748871,363.846802 270.541412,363.566559 270.109131,362.838745 
	C268.910126,361.623749 267.935974,360.856262 266.961823,360.088806 
	C266.961823,360.088806 266.983429,360.016479 266.960571,359.686249 
	C262.941071,355.608246 258.944427,351.860504 254.947815,348.112732 
	C254.947815,348.112732 254.965027,348.034027 254.890320,347.621948 
	C254.498871,343.934509 253.911240,340.659637 253.906158,337.383820 
	C253.833878,290.730408 253.862656,244.076843 253.759369,197.423538 
	C253.754440,195.196625 252.750015,192.971924 252.211060,190.746201 
	C252.027725,190.618347 251.844406,190.490509 251.117462,190.270874 
	C249.300705,191.380646 248.027542,192.582199 246.754349,193.783737 
	C246.277573,194.078644 245.800812,194.373581 244.860046,194.901016 
	C242.512177,197.015610 240.628326,198.897690 238.744476,200.779755 
	C238.175354,201.248535 237.606232,201.717300 236.528137,202.419678 
	C233.923447,204.691742 231.827728,206.730194 229.731995,208.768646 
	C228.954422,209.406616 228.176834,210.044556 226.902039,210.902420 
	C220.009781,217.778259 213.614746,224.434174 207.219711,231.090103 
	C206.919662,231.302612 206.619598,231.515121 205.883133,232.007080 
	C203.198792,235.078232 200.950867,237.869949 198.702942,240.661667 
	C198.702942,240.661667 198.794678,240.801651 198.390030,240.784286 
	C196.359711,242.856094 194.734024,244.945267 193.108368,247.034424 
	C192.820877,247.232635 192.533401,247.430847 191.811005,247.882660 
	C190.622040,249.441803 189.867981,250.747345 189.113922,252.052887 
	C189.113922,252.052887 189.031815,252.043625 188.711426,252.118469 
	C184.228485,257.790558 179.781693,263.201630 175.966385,269.026367 
	C169.351700,279.124908 163.127930,289.479523 156.740219,299.726746 
	C156.740219,299.726746 156.924988,299.901428 156.489853,299.902527 
	C153.606796,304.499420 151.158875,309.095245 148.710938,313.691071 
	C148.710938,313.691071 148.858261,313.841248 148.440918,313.871704 
	C139.428818,331.880798 129.982437,349.510345 122.435432,367.918579 
	C110.598351,396.790894 103.273094,427.070953 98.142723,457.827362 
	C96.702408,466.462006 96.329086,475.274628 95.466354,484.005615 
	C95.395424,485.246216 95.324493,486.486816 95.090645,488.236328 
	C95.201004,489.594391 95.474281,490.443512 95.747559,491.292664 
	C95.864929,491.589966 96.051392,491.834625 96.653908,492.499969 
	C99.299255,493.144714 101.597641,493.465485 103.896034,493.465485 
	C155.801315,493.465057 207.706604,493.412811 259.611847,493.453888 
	C261.996063,493.455780 264.379700,494.237579 266.452576,494.869629 
	C265.426514,496.025513 264.711456,496.967896 263.685547,498.016479 
	C262.215729,499.397827 261.056732,500.673065 259.936035,501.961334 
	C259.974304,501.974365 259.952576,501.896484 259.658142,501.983887 
	C258.873840,502.700500 258.384003,503.329712 257.934784,503.968689 
	C257.975403,503.978485 257.985626,503.895569 257.706726,503.967285 
	C257.231689,504.356720 257.035553,504.674377 256.613647,505.038513 
	C256.090942,505.263519 255.958664,505.525208 255.681274,505.999573 
	C254.433578,507.297791 253.495605,508.466553 252.628815,509.670624 
	C252.699997,509.705933 252.624954,509.565826 252.295013,509.619019 
	C249.285309,512.440552 246.605530,515.208862 243.958878,517.984863 
	C243.992004,517.992493 243.978729,517.925781 243.675186,518.030334 
	C243.091873,518.671509 242.812088,519.208191 242.660645,519.766968 
	C242.788956,519.789185 242.744629,519.532471 242.420212,519.542847 
	C241.678513,520.029724 241.261230,520.506287 240.612915,521.026001 
	C240.080368,521.254761 239.949921,521.523376 239.682068,522.014526 
	C238.091507,523.625549 236.809387,525.097046 235.599579,526.641235 
	C235.671890,526.713867 235.723953,526.515564 235.399048,526.526245 
	C234.670380,527.027527 234.266617,527.518188 233.593399,528.079468 
	C232.883591,528.721741 232.443253,529.293396 231.692261,529.992249 
	C230.426804,531.265686 229.471985,532.412048 228.649139,533.703369 
	C228.781097,533.848389 228.561874,533.523254 228.255066,533.578247 
	C227.481110,534.285217 227.013977,534.937195 226.585251,535.660156 
	C226.623642,535.731140 226.717621,535.599854 226.412598,535.642456 
	C225.939224,536.035583 225.770859,536.386169 225.708710,536.732300 
	C225.814926,536.727905 225.720398,536.537476 225.410706,536.565796 
	C224.722336,537.063782 224.343689,537.533325 223.986694,538.004272 
	C224.008347,538.005676 224.000641,537.963013 223.697632,538.090271 
	C222.470062,539.382202 221.545502,540.546814 220.596222,541.705078 
	C220.571518,541.698730 220.533615,541.664490 220.214874,541.753296 
	C209.122696,552.823608 198.349274,563.805054 187.246094,574.816284 
	C184.955811,576.896912 182.995270,578.947754 181.034729,580.998596 
	C180.867691,581.052734 180.700623,581.106934 179.870850,581.220459 
	C124.196205,581.257080 69.184181,581.200256 14.172409,581.292969 
	C10.733341,581.298767 8.536670,580.582764 7.824773,577.053528 
z"/>
<path fill="#696969" opacity="1.000000" stroke="none" 
	d="
M422.672546,635.918701 
	C417.548828,631.384583 412.355011,626.580688 407.315460,621.620056 
	C402.841370,617.216064 398.538422,612.638123 393.113037,607.060791 
	C392.754822,609.940125 392.441437,611.284363 392.441132,612.628784 
	C392.413788,741.591187 392.444641,870.553711 392.276642,999.515869 
	C392.270050,1004.569885 393.861420,1006.244080 398.588684,1007.322205 
	C448.829193,1018.780640 499.718109,1022.775391 550.984863,1018.763733 
	C576.637451,1016.756409 602.051086,1011.732361 627.590088,1008.197327 
	C631.518555,1007.653564 632.676636,1005.920044 632.673767,1001.977173 
	C632.594360,891.839722 632.627197,781.702209 632.665649,671.564697 
	C632.699036,575.924011 632.804199,480.283356 632.800903,384.642670 
	C632.796814,264.339539 632.710999,144.036392 632.690186,23.733240 
	C632.689758,21.089569 632.692932,18.962475 629.296570,18.178326 
	C603.140442,12.139387 576.828247,7.187925 549.927185,6.062509 
	C548.299072,5.994394 546.665527,6.053669 544.812866,6.053669 
	C544.632812,7.607566 544.391541,8.717631 544.391541,9.827695 
	C544.392395,169.958862 544.410461,330.090057 544.431396,490.221222 
	C544.431824,493.386810 544.580322,496.557251 544.435791,499.715179 
	C544.389465,500.728119 543.844543,502.257111 543.120850,502.552277 
	C542.360657,502.862244 540.837158,502.258362 540.125122,501.563873 
	C536.917358,498.435211 533.879272,495.132629 530.780640,491.545990 
	C534.542786,494.499054 538.304199,497.798920 543.048096,501.960632 
	C543.048096,499.001099 543.048218,497.253906 543.048157,495.506714 
	C543.041260,352.529602 543.060913,209.552505 542.995178,66.575432 
	C542.986511,47.740028 542.650879,28.902349 542.224548,10.071203 
	C542.112671,5.128346 544.073120,3.824514 548.696167,4.124135 
	C572.440491,5.663017 595.956909,8.760672 619.198425,13.881154 
	C622.715271,14.655966 626.185669,15.657289 629.719543,16.335201 
	C633.658997,17.090929 634.852539,19.163240 634.817627,23.235746 
	C634.622070,46.059822 634.774780,68.886742 634.777832,91.712685 
	C634.786743,157.857300 634.765442,224.001907 634.785156,290.146515 
	C634.807861,366.450348 634.888000,442.754211 634.893921,519.058044 
	C634.898743,581.783325 634.825256,644.508606 634.798950,707.233887 
	C634.782288,746.877869 634.801392,786.521912 634.781494,826.165894 
	C634.752747,883.464294 634.702087,940.762634 634.666870,998.061035 
	C634.665833,999.724243 634.790283,1001.388611 634.757385,1003.050476 
	C634.681946,1006.870544 632.977478,1009.213989 628.966309,1009.830994 
	C609.827881,1012.775146 590.710876,1015.858521 571.571045,1018.793152 
	C544.232361,1022.984863 516.671814,1022.228149 489.198029,1021.590088 
	C465.697906,1021.044312 442.339111,1018.096375 419.254333,1013.397278 
	C411.683502,1011.856140 404.087006,1010.430298 396.548401,1008.745178 
	C390.936676,1007.490723 389.946411,1005.632507 391.002991,1000.064148 
	C391.309204,998.450623 391.179077,996.746338 391.179199,995.083679 
	C391.189392,869.272034 391.192505,743.460388 391.196167,617.648743 
	C391.196259,613.588562 391.196167,609.528381 391.196167,605.468201 
	C391.729065,605.216858 392.261932,604.965515 392.794830,604.714172 
	C403.333099,614.412964 412.963318,625.035583 422.672546,635.918701 
z"/>
<path fill="#3B46CE" opacity="1.000000" stroke="none" 
	d="
M837.279236,314.661926 
	C844.382019,324.324158 851.325439,333.657776 858.184998,343.052643 
	C860.414612,346.106293 860.491943,348.930664 857.505493,351.909454 
	C844.072205,365.308105 830.797058,378.865112 817.436157,392.336548 
	C816.879700,392.897644 816.036133,393.173981 814.524353,394.045197 
	C814.024719,391.900696 813.254761,390.130859 813.252869,388.360168 
	C813.218018,356.370636 813.255432,324.380951 813.360962,292.391541 
	C813.367798,290.334656 814.053528,288.279999 814.711426,284.623291 
	C824.094238,294.316803 830.159119,304.677490 837.279236,314.661926 
z"/>
<path fill="#40426F" opacity="1.000000" stroke="none" 
	d="
M290.869385,491.035248 
	C291.354279,491.037018 291.839142,491.038757 292.822998,491.274078 
	C293.859589,491.384796 294.397247,491.261932 294.934906,491.139099 
	C295.411163,491.116364 295.887390,491.093658 296.928040,491.336090 
	C298.631653,491.459595 299.770844,491.317932 300.910065,491.176270 
	C301.426361,491.128998 301.942657,491.081696 302.984131,491.038757 
	C303.509338,491.043152 303.786316,491.039948 303.786316,491.039948 
	C313.543610,490.777222 323.299713,490.378174 333.058563,490.293365 
	C341.364197,490.221191 342.807983,491.850677 342.806244,500.170502 
	C342.802460,518.490784 342.892120,536.811646 342.770508,555.131104 
	C342.661469,571.556885 342.161560,587.980957 342.133392,604.406189 
	C342.111450,617.208130 342.692261,630.010132 342.752197,642.813293 
	C342.867188,667.374207 342.809143,691.935913 342.811066,716.497314 
	C342.817993,805.056030 342.819183,893.614746 342.825134,982.173462 
	C342.825623,989.645752 341.001587,990.707947 334.087250,987.516541 
	C315.270172,978.831116 296.194061,970.669495 277.665985,961.409180 
	C266.440857,955.798767 255.814362,948.877380 245.333008,941.920959 
	C232.475800,933.387756 220.051025,924.203003 207.246399,914.672119 
	C207.075012,913.591675 207.096527,913.138916 207.475983,912.758606 
	C210.640854,914.505615 213.610336,915.959534 216.229248,917.889282 
	C239.360504,934.933533 263.247009,950.773132 289.252258,963.142334 
	C303.809509,970.066467 318.611115,976.475220 333.246307,983.238037 
	C339.268829,986.021057 340.021606,985.650208 340.021362,978.957520 
	C340.018311,896.001587 340.129883,813.045532 339.979706,730.089844 
	C339.840454,653.159729 339.396881,576.230286 339.193359,499.300262 
	C339.182220,495.088531 337.656006,493.849579 333.601685,493.899323 
	C319.176666,494.076447 304.747742,493.900787 290.321045,493.986176 
	C282.538361,494.032227 274.757263,494.337250 266.956726,494.200714 
	C266.975800,493.017242 267.013641,492.158478 267.051453,491.299713 
	C267.813538,491.254303 268.575623,491.208893 269.858887,491.380737 
	C270.890411,491.464233 271.400787,491.330505 271.911163,491.196777 
	C272.116364,491.158997 272.321564,491.121216 273.025299,491.061340 
	C273.523834,491.039246 273.899017,491.032043 273.899017,491.032043 
	C274.103210,491.024048 274.307434,491.016022 275.003082,491.025604 
	C275.494507,491.043243 275.867432,491.044067 275.867432,491.044067 
	C276.061951,491.035065 276.256470,491.026093 276.917725,491.266785 
	C278.540009,491.223694 279.695587,490.930908 280.851166,490.638123 
	C281.357117,490.561737 281.863098,490.485352 282.848877,490.588623 
	C283.484741,490.883301 283.656525,490.965393 283.844086,491.014496 
	C284.049500,491.022522 284.254944,491.030518 284.975983,491.315369 
	C286.644745,491.423767 287.797882,491.255310 288.951019,491.086853 
	C289.146423,491.070374 289.341858,491.053833 290.016846,491.037476 
	C290.496399,491.037628 290.869385,491.035248 290.869385,491.035248 
z"/>
<path fill="#696969" opacity="1.000000" stroke="none" 
	d="
M528.870972,488.816162 
	C526.841125,487.475433 524.725891,485.903900 522.881348,484.061401 
	C510.506439,471.700409 498.303864,459.164215 485.786560,446.950073 
	C481.780426,443.041016 480.096344,438.876984 480.102692,433.283386 
	C480.207153,341.138397 480.159760,248.993225 480.144531,156.848099 
	C480.136383,107.523239 480.125641,58.198383 480.106232,8.873527 
	C480.105927,8.070940 479.980499,7.268401 479.878113,6.042447 
	C477.253601,6.042447 474.781128,5.748875 472.399292,6.089362 
	C454.936859,8.585633 437.466766,11.048950 420.054718,13.866587 
	C412.515320,15.086622 405.141205,17.299177 397.626373,18.711538 
	C393.605774,19.467182 392.360809,21.230623 392.370789,25.396532 
	C392.523529,89.222443 392.494904,153.048813 392.493347,216.875076 
	C392.491302,300.863831 392.510254,384.852631 392.376221,468.841187 
	C392.368652,473.591522 393.862671,477.031433 397.165283,480.278809 
	C404.519104,487.509766 411.616760,495.001221 418.879944,502.718384 
	C415.857452,500.385895 412.643646,497.856201 409.719299,495.027252 
	C404.695251,490.167206 399.556702,485.369171 395.065491,480.040070 
	C393.027985,477.622375 391.332153,473.997925 391.327484,470.918121 
	C391.130615,341.469971 391.142761,212.021545 391.129669,82.573135 
	C391.128265,68.745049 391.228546,54.915947 391.084900,41.089363 
	C391.026947,35.506977 390.625153,29.910440 390.035645,24.356878 
	C389.560486,19.880209 391.760834,18.041313 395.701508,17.261248 
	C410.879608,14.256718 425.988251,10.844208 441.241760,8.296187 
	C452.799103,6.365593 464.534790,5.495330 476.197479,4.210904 
	C477.814697,4.032797 479.468445,4.186323 481.438660,4.186323 
	C481.585846,6.039640 481.800507,7.481018 481.800476,8.922391 
	C481.797180,150.858170 481.791687,292.793945 481.696014,434.729675 
	C481.692932,439.307526 483.569031,442.512787 486.661560,445.552429 
	C499.952515,458.616394 513.154663,471.770844 526.348511,484.933197 
	C527.364319,485.946655 528.064087,487.276947 528.870972,488.816162 
z"/>
<path fill="#3E405B" opacity="1.000000" stroke="none" 
	d="
M108.942154,816.058289 
	C104.001396,809.696411 98.774307,803.534302 94.171410,796.936768 
	C77.692192,773.316406 63.657314,748.242737 51.315201,722.261658 
	C39.910568,698.254089 29.713270,673.733826 22.867889,647.950806 
	C21.255186,641.876587 19.343672,635.882324 17.644842,629.830200 
	C16.247608,624.852539 17.544962,623.165588 22.792814,623.159973 
	C48.624779,623.132263 74.458015,623.268982 100.287758,623.024719 
	C105.763115,622.973022 108.178894,625.235779 110.104324,630.067932 
	C117.958031,649.777954 125.419746,669.702759 134.492691,688.853577 
	C146.024887,713.195190 161.078415,735.518372 177.279892,757.060059 
	C193.617691,778.782898 212.140472,798.486694 231.673248,817.298645 
	C235.256073,820.749207 238.938522,824.096313 242.274323,827.791626 
	C239.054443,826.347839 236.135223,824.603699 233.193909,822.847046 
	C233.171814,822.834473 233.131271,822.807495 233.079468,822.477173 
	C231.867859,820.759827 230.823441,819.253052 229.528671,818.006165 
	C223.197647,811.909058 216.427719,806.221497 210.510788,799.751038 
	C201.023834,789.376709 192.111786,778.477966 182.897079,767.852600 
	C180.778000,765.408997 178.416916,763.175293 176.119385,760.639771 
	C176.071564,760.434509 175.967590,760.026123 175.959641,759.669067 
	C172.750320,754.537109 169.618011,749.713135 166.291061,745.027405 
	C165.602249,744.057312 164.190109,743.600769 163.089752,742.944153 
	C163.068146,742.980774 163.096939,742.910645 163.087830,742.547974 
	C158.522568,734.799316 154.016495,727.381592 149.375671,720.049133 
	C148.191132,718.177551 146.579956,716.575989 145.122940,714.641357 
	C145.081070,714.432373 144.972855,714.020020 144.960999,713.658081 
	C144.177368,711.642029 143.548706,709.901733 142.612350,708.346741 
	C129.376114,686.365173 119.192024,662.973633 110.470337,638.906372 
	C109.455124,636.104797 108.504562,633.266418 107.756508,630.384766 
	C106.695076,626.295837 104.058578,624.978638 100.032471,624.993042 
	C75.389732,625.081116 50.746513,625.026245 26.103519,625.061707 
	C20.220844,625.070190 18.716627,626.723877 20.395241,632.396729 
	C24.773300,647.192383 28.847448,662.127625 34.240307,676.559753 
	C39.800961,691.440857 46.600426,705.872925 53.169830,720.359985 
	C64.135384,744.541748 77.156654,767.602783 91.860542,789.709839 
	C97.638542,798.396973 103.482933,807.039917 109.208313,815.791748 
	C109.119537,815.880554 108.942139,816.058289 108.942154,816.058289 
z"/>
<path fill="#696969" opacity="1.000000" stroke="none" 
	d="
M539.890686,625.583618 
	C544.149353,626.430237 544.437317,629.742737 544.433228,633.456726 
	C544.372314,688.778931 544.362976,744.101257 544.353638,799.423523 
	C544.346680,840.414429 544.293945,881.405518 544.448120,922.395874 
	C544.465515,927.019531 542.611328,928.858643 538.371399,928.872925 
	C521.730347,928.929138 505.084717,929.175537 488.449738,928.866638 
	C480.317444,928.715698 480.194794,928.081726 480.195129,920.006592 
	C480.197876,852.530579 480.227966,785.054565 480.155487,717.578674 
	C480.147308,709.959167 479.555206,702.340393 479.217834,694.295654 
	C480.063873,695.782837 481.675781,697.694031 481.679657,699.608521 
	C481.817932,768.090637 481.805054,836.573059 481.816284,905.055481 
	C481.817200,910.720398 482.017761,916.392578 481.787872,922.047607 
	C481.640747,925.666504 482.830933,927.161621 486.565582,927.206604 
	C500.152252,927.370117 513.735352,927.840759 527.321960,927.987366 
	C531.415955,928.031555 535.512329,927.271729 539.616577,927.113770 
	C543.498474,926.964294 543.032715,924.308533 543.032654,921.802002 
	C543.032410,898.473267 543.040833,875.144470 543.040710,851.815735 
	C543.040344,779.329041 543.012085,706.842285 543.114258,634.355774 
	C543.119080,630.940308 542.487061,628.187439 539.890686,625.583618 
z"/>
<path fill="#3E405B" opacity="1.000000" stroke="none" 
	d="
M331.107971,426.226929 
	C333.743988,428.066711 336.340057,430.261749 339.667603,433.075256 
	C339.667603,300.631683 339.667603,169.006531 339.667603,36.451733 
	C334.511017,38.493488 329.477844,40.387856 324.521240,42.464909 
	C291.870422,56.147141 261.102386,73.314972 231.573929,92.770935 
	C230.741257,93.319572 229.843491,93.769417 228.622894,94.260826 
	C229.334045,93.115128 230.207703,91.659569 231.491821,90.880699 
	C246.572006,81.733940 261.592224,72.477905 276.870178,63.670315 
	C295.749054,52.786846 315.646088,43.992908 335.950775,36.126045 
	C337.573364,35.497387 339.373291,35.326424 341.976196,34.744972 
	C341.976196,44.690113 341.975494,53.952232 341.976257,63.214348 
	C341.984070,156.959122 341.994934,250.703903 341.998383,344.448669 
	C341.999420,372.752747 342.010315,401.056976 341.898499,429.360657 
	C341.891510,431.137390 340.853180,432.910034 340.294647,434.684601 
	C338.793121,433.849640 337.069580,433.255157 335.842773,432.122620 
	C334.063019,430.479614 332.642029,428.448029 331.107971,426.226929 
z"/>
<path fill="#31345E" opacity="1.000000" stroke="none" 
	d="
M215.896545,692.000000 
	C215.906754,705.659790 215.988831,718.820435 215.841660,731.978455 
	C215.821915,733.743286 214.644775,735.495178 214.003586,737.253052 
	C212.471970,736.421570 210.449203,735.965088 209.484146,734.701050 
	C198.931122,720.878296 187.866638,707.377808 178.276077,692.905090 
	C165.325653,673.362183 155.807022,651.932190 147.179764,630.147949 
	C145.042511,624.751282 146.026031,623.173035 151.839523,623.158447 
	C170.495438,623.111572 189.151489,623.117004 207.807495,623.122742 
	C214.323181,623.124756 215.849869,624.714844 215.858932,631.531921 
	C215.885513,651.521301 215.885895,671.510620 215.896545,692.000000 
M177.083755,685.388000 
	C187.294205,701.373779 197.198395,717.590881 211.443436,730.954956 
	C212.490707,726.119629 212.984253,721.496460 212.945023,716.877747 
	C212.748581,693.744995 212.398193,670.613708 212.136200,647.481445 
	C212.073944,641.984253 211.995575,636.480103 212.199844,630.989380 
	C212.357361,626.755127 210.044250,625.882690 206.544861,626.077881 
	C201.576477,626.355042 196.607208,626.763489 191.635635,626.806458 
	C179.529236,626.911133 167.420792,626.775513 155.314178,626.868042 
	C150.785446,626.902649 149.484055,628.583435 151.485306,632.795715 
	C159.747147,650.185669 168.310425,667.432495 177.083755,685.388000 
z"/>
<path fill="#3D43A6" opacity="1.000000" stroke="none" 
	d="
M233.216034,822.859497 
	C236.135223,824.603699 239.054443,826.347839 242.305527,828.115295 
	C242.637390,828.138550 242.770798,828.204102 242.880707,828.588257 
	C243.591629,829.752319 244.032928,830.822876 244.823700,831.257263 
	C247.166458,832.544312 249.647049,833.580505 252.073730,834.714722 
	C252.707184,832.264587 253.877640,829.817261 253.890900,827.363831 
	C254.020660,803.320923 253.987854,779.276855 253.887955,755.233582 
	C253.880524,753.441650 252.999557,751.653442 252.524689,749.863464 
	C252.473190,746.912537 252.421677,743.961670 252.703140,740.467407 
	C252.858841,738.901611 252.681564,737.879272 252.504288,736.856873 
	C252.464279,733.909607 252.424271,730.962402 252.777100,727.394897 
	C253.325928,718.437683 253.494003,710.100952 253.588852,701.763367 
	C253.592239,701.464783 252.872467,701.157959 252.489746,700.854980 
	C252.456741,689.918762 252.423721,678.982544 252.780182,667.416382 
	C252.950027,663.479431 252.730423,660.172302 252.510803,656.865234 
	C252.461929,653.252991 252.413055,649.640686 252.664444,645.499268 
	C252.818436,644.262695 252.672165,643.555420 252.525909,642.848083 
	C252.472672,635.246033 252.419434,627.644043 252.765961,619.408203 
	C252.952515,613.137512 252.739288,607.500610 252.526062,601.863708 
	C252.474823,595.927856 252.423599,589.991943 252.723221,583.474121 
	C254.132996,577.986511 251.248413,576.996277 247.279327,576.997070 
	C230.372757,577.000671 213.464844,577.087036 196.560837,576.873108 
	C193.557526,576.835083 190.570419,575.514648 187.575836,574.786438 
	C198.349274,563.805054 209.122696,552.823608 220.321655,542.106384 
	C219.741394,543.824585 218.918777,545.457947 217.699265,546.702576 
	C211.168808,553.367676 204.488235,559.885925 197.976089,566.568542 
	C196.084747,568.509338 194.577545,570.824585 192.098282,573.981812 
	C195.639557,574.429871 197.857254,574.942810 200.077469,574.953979 
	C215.574234,575.032166 231.071533,575.013733 246.568649,575.011292 
	C255.065750,575.009949 255.960220,575.883301 255.962601,584.441895 
	C255.970673,613.436523 255.972473,642.431213 255.972595,671.425842 
	C255.972839,723.749512 256.004486,776.073303 255.870712,828.396667 
	C255.863770,831.112671 255.260757,834.789612 253.477371,836.316833 
	C250.680389,838.712158 247.673264,836.176880 245.164337,834.110291 
	C243.503281,832.742126 241.510056,831.744995 239.978806,830.258972 
	C237.585114,827.936157 235.456787,825.339905 233.216034,822.859497 
z"/>
<path fill="#3E405B" opacity="1.000000" stroke="none" 
	d="
M104.566978,213.947937 
	C99.732056,221.833603 94.536964,229.693802 89.367088,237.570526 
	C58.680679,284.323822 37.285496,335.120880 23.164837,389.126556 
	C9.293019,442.180481 3.646952,496.066101 6.342268,550.824768 
	C6.710278,558.301392 7.416018,565.761475 7.806394,573.660156 
	C6.805947,570.130005 5.332211,566.185547 5.228101,562.205200 
	C4.654565,540.277710 3.752478,518.325012 4.296831,496.414124 
	C4.655191,481.989746 6.840469,467.558350 8.971490,453.243805 
	C11.593891,435.628601 14.521067,418.026825 18.250422,400.619293 
	C20.901348,388.245575 24.647013,376.050568 28.708656,364.048035 
	C34.684380,346.389252 40.689129,328.681152 47.962463,311.537537 
	C54.937901,295.096130 62.792740,278.917267 71.644592,263.412872 
	C80.870941,247.252502 91.742317,232.030624 101.928703,216.420746 
	C102.536621,215.489166 103.448189,214.755737 104.566978,213.947937 
z"/>
<path fill="#3E405B" opacity="1.000000" stroke="none" 
	d="
M266.584656,491.213593 
	C267.013641,492.158478 266.975800,493.017242 266.890930,494.212402 
	C266.843903,494.548828 266.763611,494.656158 266.763611,494.656128 
	C264.379700,494.237579 261.996063,493.455780 259.611847,493.453888 
	C207.706604,493.412811 155.801315,493.465057 103.896034,493.465485 
	C101.597641,493.465485 99.299255,493.144714 96.860535,492.607513 
	C97.376152,492.138794 98.031639,491.948792 98.688072,491.945465 
	C154.497971,491.663513 210.307938,491.395996 266.584656,491.213593 
z"/>
<path fill="#3E405B" opacity="1.000000" stroke="none" 
	d="
M7.551028,577.307007 
	C8.536670,580.582764 10.733341,581.298767 14.172409,581.292969 
	C69.184181,581.200256 124.196205,581.257080 179.672089,581.393372 
	C178.734589,581.996094 177.333633,582.911682 175.931747,582.913086 
	C121.394684,582.968140 66.857529,582.912048 12.320515,582.978943 
	C8.275591,582.983887 6.182693,581.958435 7.551028,577.307007 
z"/>
<path fill="#3E405B" opacity="1.000000" stroke="none" 
	d="
M95.884567,483.885590 
	C96.329086,475.274628 96.702408,466.462006 98.142723,457.827362 
	C103.273094,427.070953 110.598351,396.790894 122.435432,367.918579 
	C129.982437,349.510345 139.428818,331.880798 148.349380,313.819824 
	C146.897995,317.569580 145.020615,321.358795 143.360336,325.240845 
	C134.650223,345.606812 125.198769,365.701996 117.528435,386.454376 
	C108.548836,410.749054 103.741074,436.261475 99.098869,461.711823 
	C97.771149,468.990875 97.213539,476.410431 95.884567,483.885590 
z"/>
<path fill="#3E405B" opacity="1.000000" stroke="none" 
	d="
M207.118042,912.686218 
	C207.096527,913.138916 207.075012,913.591675 207.071335,914.381470 
	C201.415237,910.559814 195.502182,906.686462 190.121078,902.178223 
	C181.130127,894.645691 172.155975,887.038696 163.767120,878.855774 
	C153.339218,868.683777 143.273178,858.111633 133.505692,847.301331 
	C126.089142,839.092896 119.360954,830.260437 112.382172,821.660461 
	C111.142845,820.133179 110.176308,818.384521 109.012970,816.398193 
	C108.942139,816.058289 109.119537,815.880554 109.495621,815.909973 
	C110.936302,816.603882 112.000893,817.268372 113.049515,817.968506 
	C113.033554,818.004028 113.080879,817.937500 113.078384,818.292847 
	C115.659805,821.485291 118.243721,824.322266 120.967377,827.393921 
	C121.411987,828.079590 121.716866,828.530640 122.036377,829.332764 
	C125.044395,833.112976 128.037781,836.542114 131.017120,839.984436 
	C131.003052,839.997559 131.035431,839.969788 131.045319,840.319580 
	C136.334106,846.142883 141.613022,851.616516 146.939301,857.052490 
	C146.986649,857.014893 146.909790,857.108276 146.954651,857.444702 
	C149.620316,860.229309 152.241119,862.677551 155.070526,865.251709 
	C155.539520,865.583435 155.737167,865.838013 155.922455,866.477051 
	C161.880356,872.817810 167.671967,878.943665 173.747040,884.774109 
	C176.555115,887.469177 179.916443,889.587769 183.013779,891.982666 
	C183.000610,891.997559 183.026367,891.972168 183.139236,892.288269 
	C185.841782,894.726685 188.431458,896.848999 191.139740,899.183594 
	C191.461258,899.660278 191.718079,899.852722 192.142822,900.292114 
	C195.852707,903.388184 199.448608,906.165466 203.021103,908.964844 
	C202.997696,908.986938 203.048508,908.953308 203.151703,909.280762 
	C203.710709,910.132629 204.166504,910.656982 204.762817,911.374146 
	C205.641571,911.939941 206.379807,912.313110 207.118042,912.686218 
z"/>
<path fill="#3E405B" opacity="1.000000" stroke="none" 
	d="
M252.131042,191.226074 
	C252.750015,192.971924 253.754440,195.196625 253.759369,197.423538 
	C253.862656,244.076843 253.833878,290.730408 253.906158,337.383820 
	C253.911240,340.659637 254.498871,343.934509 254.850952,347.630554 
	C253.928772,345.855530 252.144897,343.662933 252.136414,341.463501 
	C251.984253,302.027527 252.048706,262.590698 252.062378,223.154053 
	C252.066010,212.671341 252.055191,202.188644 252.131042,191.226074 
z"/>
<path fill="#3E405B" opacity="1.000000" stroke="none" 
	d="
M252.370987,750.321289 
	C252.999557,751.653442 253.880524,753.441650 253.887955,755.233582 
	C253.987854,779.276855 254.020660,803.320923 253.890900,827.363831 
	C253.877640,829.817261 252.707184,832.264587 252.073730,834.714722 
	C249.647049,833.580505 247.166458,832.544312 244.823700,831.257263 
	C244.032928,830.822876 243.591629,829.752319 242.912079,828.655640 
	C245.582565,829.897278 248.331589,831.455750 252.217285,833.658569 
	C252.217285,805.403870 252.217285,778.091553 252.370987,750.321289 
z"/>
<path fill="#3E405B" opacity="1.000000" stroke="none" 
	d="
M187.246094,574.816284 
	C190.570419,575.514648 193.557526,576.835083 196.560837,576.873108 
	C213.464844,577.087036 230.372757,577.000671 247.279327,576.997070 
	C251.248413,576.996277 254.132996,577.986511 252.801178,583.024292 
	C252.208160,579.904358 250.472443,578.798035 247.183228,578.819275 
	C227.894318,578.943909 208.603485,578.800781 189.315353,578.975891 
	C186.809738,578.998657 184.316025,580.334290 181.425766,581.030151 
	C182.995270,578.947754 184.955811,576.896912 187.246094,574.816284 
z"/>
<path fill="#3E405B" opacity="1.000000" stroke="none" 
	d="
M142.065063,168.288757 
	C137.510849,174.125153 132.483002,179.799438 127.736900,185.700333 
	C120.266205,194.988785 112.985100,204.429718 105.290855,213.857925 
	C107.614235,209.670151 109.828468,205.060440 113.010010,201.260681 
	C122.373558,190.077637 132.120743,179.215805 142.065063,168.288757 
z"/>
<path fill="#3E405B" opacity="1.000000" stroke="none" 
	d="
M157.090332,299.724487 
	C163.127930,289.479523 169.351700,279.124908 175.966385,269.026367 
	C179.781693,263.201630 184.228485,257.790558 188.726959,252.156754 
	C187.405838,255.055328 185.928772,258.110748 184.060913,260.904907 
	C175.608429,273.549286 167.048065,286.121521 158.510849,298.709076 
	C158.241547,299.106140 157.801086,299.387085 157.090332,299.724487 
z"/>
<path fill="#696969" opacity="1.000000" stroke="none" 
	d="
M459.829651,673.843872 
	C450.262512,664.649109 440.727997,655.099854 431.186707,645.211670 
	C437.048981,650.416260 443.012634,655.864014 448.753845,661.536865 
	C452.619354,665.356445 456.170471,669.494080 459.829651,673.843872 
z"/>
<path fill="#696969" opacity="1.000000" stroke="none" 
	d="
M418.983154,503.397339 
	C426.925201,510.829163 434.897980,518.599670 442.909973,526.706665 
	C441.191345,525.669373 439.266174,524.461975 437.704987,522.892517 
	C431.413513,516.567810 425.234436,510.131317 418.983154,503.397339 
z"/>
<path fill="#3E405B" opacity="1.000000" stroke="none" 
	d="
M281.106903,375.147522 
	C288.763550,382.309052 296.345642,389.832855 303.908112,397.696411 
	C301.180328,395.763916 298.279236,393.682404 295.804413,391.179413 
	C290.758820,386.076416 285.942902,380.746307 281.106903,375.147522 
z"/>
<path fill="#3E405B" opacity="1.000000" stroke="none" 
	d="
M168.001724,142.352478 
	C162.541702,148.434265 156.751419,154.458817 150.923904,160.447128 
	C149.315018,162.100388 147.595276,163.645767 145.583923,165.263428 
	C145.372131,164.510681 145.220047,163.439163 145.675735,163.003876 
	C152.957092,156.048431 160.316101,149.174255 168.001724,142.352478 
z"/>
<path fill="#696969" opacity="1.000000" stroke="none" 
	d="
M507.934326,593.384094 
	C515.282654,600.151367 522.597412,607.265320 529.916626,614.721313 
	C522.580933,607.952454 515.240845,600.841614 507.934326,593.384094 
z"/>
<path fill="#3E405B" opacity="1.000000" stroke="none" 
	d="
M207.559509,231.106033 
	C213.614746,224.434174 220.009781,217.778259 226.742599,211.161560 
	C220.686676,217.841156 214.292984,224.481552 207.559509,231.106033 
z"/>
<path fill="#696969" opacity="1.000000" stroke="none" 
	d="
M489.238617,574.092407 
	C495.518158,579.939270 501.743195,586.142151 507.965363,592.688477 
	C501.703003,586.837463 495.443573,580.642944 489.238617,574.092407 
z"/>
<path fill="#3E405B" opacity="1.000000" stroke="none" 
	d="
M252.345337,701.316284 
	C252.872467,701.157959 253.592239,701.464783 253.588852,701.763367 
	C253.494003,710.100952 253.325928,718.437683 252.845749,726.958984 
	C252.414688,718.688049 252.307816,710.232849 252.345337,701.316284 
z"/>
<path fill="#696969" opacity="1.000000" stroke="none" 
	d="
M442.958984,527.395386 
	C448.399384,532.354797 453.840729,537.658875 459.304443,543.303833 
	C453.871155,538.343140 448.415527,533.041565 442.958984,527.395386 
z"/>
<path fill="#3E405B" opacity="1.000000" stroke="none" 
	d="
M252.373718,602.321045 
	C252.739288,607.500610 252.952515,613.137512 252.840195,618.956055 
	C252.416901,613.684570 252.319138,608.231445 252.373718,602.321045 
z"/>
<path fill="#3E405B" opacity="1.000000" stroke="none" 
	d="
M254.922623,348.457184 
	C258.944427,351.860504 262.941071,355.608246 266.924438,359.697205 
	C262.906647,356.292816 258.902039,352.547211 254.922623,348.457184 
z"/>
<path fill="#3E405B" opacity="1.000000" stroke="none" 
	d="
M191.532959,121.887253 
	C187.588165,125.725632 183.284515,129.504440 178.633102,133.276489 
	C182.581589,129.455704 186.877853,125.641685 191.532959,121.887253 
z"/>
<path fill="#3E405B" opacity="1.000000" stroke="none" 
	d="
M209.976990,107.294182 
	C206.098114,110.934776 201.869370,114.441673 197.291672,117.914001 
	C201.170868,114.306458 205.398987,110.733467 209.976990,107.294182 
z"/>
<path fill="#3E405B" opacity="1.000000" stroke="none" 
	d="
M149.066833,313.701385 
	C151.158875,309.095245 153.606796,304.499420 156.383789,299.832397 
	C154.282822,304.411377 151.852783,309.061554 149.066833,313.701385 
z"/>
<path fill="#3E405B" opacity="1.000000" stroke="none" 
	d="
M177.895828,133.202301 
	C175.198654,136.323105 172.150223,139.345062 168.760361,142.362991 
	C171.460815,139.273788 174.502701,136.188629 177.895828,133.202301 
z"/>
<path fill="#3E405B" opacity="1.000000" stroke="none" 
	d="
M227.883392,94.210068 
	C224.854233,96.977211 221.468613,99.668968 217.734772,102.353806 
	C220.766678,99.609489 224.146820,96.872086 227.883392,94.210068 
z"/>
<path fill="#696969" opacity="1.000000" stroke="none" 
	d="
M480.210815,565.118774 
	C482.886505,567.204468 485.519440,569.646545 488.192749,572.424805 
	C485.544739,570.332336 482.856384,567.903748 480.210815,565.118774 
z"/>
<path fill="#3E405B" opacity="1.000000" stroke="none" 
	d="
M199.046722,240.704193 
	C200.950867,237.869949 203.198792,235.078232 205.779266,232.267792 
	C203.871368,235.081604 201.630936,237.914154 199.046722,240.704193 
z"/>
<path fill="#696969" opacity="1.000000" stroke="none" 
	d="
M430.114807,643.501892 
	C427.651123,641.563782 425.191742,639.283752 422.736115,636.660645 
	C425.199615,638.598389 427.659332,640.879150 430.114807,643.501892 
z"/>
<path fill="#3E405B" opacity="1.000000" stroke="none" 
	d="
M252.364075,657.313843 
	C252.730423,660.172302 252.950027,663.479431 252.857056,666.965332 
	C252.435425,664.016907 252.326385,660.889709 252.364075,657.313843 
z"/>
<path fill="#3E405B" opacity="1.000000" stroke="none" 
	d="
M230.089905,208.848984 
	C231.827728,206.730194 233.923447,204.691742 236.366333,202.645615 
	C234.624908,204.735062 232.536346,206.832184 230.089905,208.848984 
z"/>
<path fill="#3E405B" opacity="1.000000" stroke="none" 
	d="
M239.100586,200.854828 
	C240.628326,198.897690 242.512177,197.015610 244.732300,195.153748 
	C243.197952,197.092636 241.327332,199.011261 239.100586,200.854828 
z"/>
<path fill="#3E405B" opacity="1.000000" stroke="none" 
	d="
M193.455017,247.060211 
	C194.734024,244.945267 196.359711,242.856094 198.319550,240.739166 
	C197.036377,242.836288 195.419037,244.961136 193.455017,247.060211 
z"/>
<path fill="#3E405B" opacity="1.000000" stroke="none" 
	d="
M216.959869,102.284958 
	C215.235214,104.061836 213.162094,105.714012 210.746841,107.358826 
	C212.473618,105.621056 214.542526,103.890663 216.959869,102.284958 
z"/>
<path fill="#3E405B" opacity="1.000000" stroke="none" 
	d="
M307.930786,402.456543 
	C309.621216,403.521088 311.279633,404.928192 312.938965,406.670715 
	C311.259552,405.603760 309.579163,404.201416 307.930786,402.456543 
z"/>
<path fill="#696969" opacity="1.000000" stroke="none" 
	d="
M462.302551,547.044067 
	C463.775604,547.972473 465.241180,549.235596 466.722107,550.831787 
	C465.256653,549.902832 463.775879,548.640808 462.302551,547.044067 
z"/>
<path fill="#3E405B" opacity="1.000000" stroke="none" 
	d="
M196.521057,117.886841 
	C195.457535,119.270599 194.039536,120.604874 192.286407,121.916382 
	C193.356384,120.541519 194.761490,119.189438 196.521057,117.886841 
z"/>
<path fill="#696969" opacity="1.000000" stroke="none" 
	d="
M475.111572,689.504517 
	C473.653412,688.546082 472.196411,687.249268 470.735168,685.609863 
	C472.191559,686.566895 473.652161,687.866455 475.111572,689.504517 
z"/>
<path fill="#3E405B" opacity="1.000000" stroke="none" 
	d="
M247.122131,193.844727 
	C248.027542,192.582199 249.300705,191.380646 250.794769,190.361771 
	C249.840408,191.664871 248.665161,192.785294 247.122131,193.844727 
z"/>
<path fill="#3E405B" opacity="1.000000" stroke="none" 
	d="
M327.135437,422.127594 
	C328.486511,422.904388 329.772430,424.048615 331.093384,425.523071 
	C329.775665,424.733856 328.422974,423.614441 327.135437,422.127594 
z"/>
<path fill="#3E405B" opacity="1.000000" stroke="none" 
	d="
M300.722290,490.914795 
	C299.770844,491.317932 298.631653,491.459595 297.284607,491.369934 
	C298.229370,490.976837 299.381927,490.815094 300.722290,490.914795 
z"/>
<path fill="#3E405B" opacity="1.000000" stroke="none" 
	d="
M288.758179,490.828552 
	C287.797882,491.255310 286.644745,491.423767 285.281799,491.355164 
	C286.236420,490.935516 287.400848,490.752899 288.758179,490.828552 
z"/>
<path fill="#3E405B" opacity="1.000000" stroke="none" 
	d="
M189.464813,252.070251 
	C189.867981,250.747345 190.622040,249.441803 191.710892,248.129715 
	C191.302353,249.444656 190.559021,250.766129 189.464813,252.070251 
z"/>
<path fill="#3E405B" opacity="1.000000" stroke="none" 
	d="
M266.922913,360.425293 
	C267.935974,360.856262 268.910126,361.623749 269.872101,362.720947 
	C268.867981,362.287720 267.876007,361.524780 266.922913,360.425293 
z"/>
<path fill="#696969" opacity="1.000000" stroke="none" 
	d="
M534.917053,620.441589 
	C535.913757,620.880859 536.902832,621.653381 537.878540,622.759399 
	C536.879883,622.320251 535.894653,621.547546 534.917053,620.441589 
z"/>
<path fill="#3E405B" opacity="1.000000" stroke="none" 
	d="
M280.534576,490.477722 
	C279.695587,490.930908 278.540009,491.223694 277.209503,491.280548 
	C278.095703,490.802155 279.156860,490.559723 280.534576,490.477722 
z"/>
<path fill="#696969" opacity="1.000000" stroke="none" 
	d="
M463.853516,677.822693 
	C462.814056,677.412842 461.837830,676.625610 460.831848,675.517578 
	C461.840302,675.946350 462.878540,676.695862 463.853516,677.822693 
z"/>
<path fill="#3E405B" opacity="1.000000" stroke="none" 
	d="
M252.362213,737.255615 
	C252.681564,737.879272 252.858841,738.901611 252.771774,740.030518 
	C252.411667,739.309509 252.315887,738.481995 252.362213,737.255615 
z"/>
<path fill="#3E405B" opacity="1.000000" stroke="none" 
	d="
M270.921265,364.464508 
	C271.746033,364.791687 272.535736,365.456329 273.309082,366.453918 
	C272.490540,366.125214 271.688385,365.463593 270.921265,364.464508 
z"/>
<path fill="#696969" opacity="1.000000" stroke="none" 
	d="
M468.146484,682.428955 
	C467.347504,682.136230 466.540192,681.519348 465.738220,680.572021 
	C466.541779,680.862610 467.339966,681.483765 468.146484,682.428955 
z"/>
<path fill="#696969" opacity="1.000000" stroke="none" 
	d="
M476.844116,561.593079 
	C477.628021,561.879456 478.420105,562.488770 479.230713,563.428345 
	C478.450287,563.144348 477.651276,562.530212 476.844116,561.593079 
z"/>
<path fill="#696969" opacity="1.000000" stroke="none" 
	d="
M470.237366,555.077087 
	C471.102936,555.329773 471.958740,555.907349 472.803528,556.813171 
	C471.937592,556.561584 471.082611,555.981812 470.237366,555.077087 
z"/>
<path fill="#3E405B" opacity="1.000000" stroke="none" 
	d="
M95.830933,490.807373 
	C95.474281,490.443512 95.201004,489.594391 95.157043,488.603577 
	C95.562340,489.082001 95.738327,489.702026 95.830933,490.807373 
z"/>
<path fill="#3E405B" opacity="1.000000" stroke="none" 
	d="
M271.782532,490.980865 
	C271.400787,491.330505 270.890411,491.464233 270.239807,491.416565 
	C270.617676,491.078400 271.135803,490.921661 271.782532,490.980865 
z"/>
<path fill="#3E405B" opacity="1.000000" stroke="none" 
	d="
M252.387085,643.220825 
	C252.672165,643.555420 252.818436,644.262695 252.732422,645.054871 
	C252.416168,644.624329 252.332214,644.108948 252.387085,643.220825 
z"/>
<path fill="#696969" opacity="1.000000" stroke="none" 
	d="
M531.876953,617.477539 
	C532.554688,617.582642 533.222717,618.011780 533.886475,618.761597 
	C533.210632,618.655396 532.538940,618.228516 531.876953,617.477539 
z"/>
<path fill="#696969" opacity="1.000000" stroke="none" 
	d="
M529.917480,615.403259 
	C530.572449,615.548645 531.210083,616.017517 531.846802,616.801025 
	C531.197327,616.652710 530.548767,616.189758 529.917480,615.403259 
z"/>
<path fill="#3E405B" opacity="1.000000" stroke="none" 
	d="
M294.802368,490.918121 
	C294.397247,491.261932 293.859589,491.384796 293.185547,491.303223 
	C293.589386,490.964905 294.129639,490.831024 294.802368,490.918121 
z"/>
<path fill="#3E405B" opacity="1.000000" stroke="none" 
	d="
M303.762268,490.897766 
	C303.786316,491.039948 303.509338,491.043152 303.373291,491.044220 
	C303.237244,491.045288 303.385376,490.679443 303.385376,490.679443 
	C303.385376,490.679443 303.738190,490.755615 303.762268,490.897766 
z"/>
<path fill="#3E405B" opacity="1.000000" stroke="none" 
	d="
M290.824554,490.871002 
	C290.869385,491.035248 290.496399,491.037628 290.311005,491.035614 
	C290.343628,490.924652 290.561676,490.815704 290.824554,490.871002 
z"/>
<path fill="#3E405B" opacity="1.000000" stroke="none" 
	d="
M283.789978,490.847076 
	C283.656525,490.965393 283.484741,490.883301 283.225952,490.676575 
	C283.359314,490.409882 283.563568,490.441467 283.789978,490.847076 
z"/>
<path fill="#3E405B" opacity="1.000000" stroke="none" 
	d="
M275.821350,490.885101 
	C275.867432,491.044067 275.494507,491.043243 275.309204,491.041870 
	C275.123932,491.040527 275.355560,490.639526 275.355560,490.639526 
	C275.355560,490.639526 275.775238,490.726135 275.821350,490.885101 
z"/>
<path fill="#3E405B" opacity="1.000000" stroke="none" 
	d="
M273.850647,490.866577 
	C273.899017,491.032043 273.523834,491.039246 273.337585,491.040436 
	C273.368286,490.928101 273.585297,490.814575 273.850647,490.866577 
z"/>
<path fill="#040404" opacity="1.000000" stroke="none" 
	d="
M771.158569,612.000000 
	C771.138916,603.669922 771.087158,595.839905 771.099731,588.009949 
	C771.109314,582.033020 771.724915,581.419067 777.673767,581.415649 
	C807.161255,581.398987 836.648682,581.390259 866.136169,581.401001 
	C882.795532,581.407043 899.455139,581.416260 916.114136,581.507874 
	C921.752930,581.538818 922.271423,582.253418 921.168152,587.619263 
	C905.866821,662.038330 873.644287,728.197937 823.710510,785.487122 
	C809.516907,801.771484 794.138489,817.025635 779.215637,832.668457 
	C777.457764,834.511169 775.140991,835.820557 773.083313,837.377197 
	C772.510193,837.218018 771.937073,837.058838 771.363953,836.899658 
	C771.294006,762.099731 771.224060,687.299866 771.158569,612.000000 
z"/>
<path fill="#3844E2" opacity="1.000000" stroke="none" 
	d="
M155.872101,866.141235 
	C155.737167,865.838013 155.539520,865.583435 155.090881,864.895142 
	C152.238327,861.977844 149.574066,859.543030 146.909790,857.108276 
	C146.909790,857.108276 146.986649,857.014893 146.951294,856.698669 
	C143.430161,852.252258 140.052322,848.023254 136.406387,844.039612 
	C134.914719,842.409668 132.843185,841.310425 131.035446,839.969727 
	C131.035431,839.969788 131.003052,839.997559 131.016876,839.621094 
	C128.027725,835.823669 125.024734,832.402649 122.021744,828.981689 
	C121.716866,828.530640 121.411987,828.079590 121.001442,827.031006 
	C118.290802,823.601440 115.685837,820.769470 113.080872,817.937500 
	C113.080879,817.937500 113.033554,818.004028 113.040283,817.606567 
	C111.922630,815.215881 110.950287,813.116821 109.648430,811.247192 
	C102.752457,801.343445 95.274467,791.805420 88.948753,781.554016 
	C80.878433,768.475342 73.350838,755.026306 66.258377,741.388977 
	C58.170902,725.838440 50.094707,710.207642 43.352760,694.052856 
	C36.600197,677.872559 31.394751,661.038574 25.738119,644.413879 
	C24.013140,639.344238 23.039251,634.018982 21.443296,627.711792 
	C28.969141,627.468567 35.382465,627.112549 41.797314,627.082642 
	C59.218773,627.001526 76.643532,627.234070 94.061363,626.970703 
	C100.654053,626.871094 104.471245,628.463989 106.726532,634.476501 
	C109.460205,641.764282 111.365295,649.395752 114.502884,656.492065 
	C120.595543,670.272034 127.031189,683.918335 133.871277,697.341492 
	C136.883057,703.251953 141.231354,708.481384 144.972839,714.020020 
	C144.972855,714.020020 145.081070,714.432373 145.096283,715.019531 
	C147.156662,719.505981 148.873459,723.627258 151.324097,727.252441 
	C154.976654,732.655518 159.146942,737.708618 163.096924,742.910645 
	C163.096939,742.910645 163.068146,742.980774 163.076111,743.308472 
	C165.499664,747.365967 167.742020,751.225342 170.398209,754.775085 
	C171.904205,756.787720 174.088669,758.292603 175.967590,760.026123 
	C175.967590,760.026123 176.071564,760.434509 176.093185,761.002930 
	C176.385376,762.164856 176.559967,762.829590 176.940308,763.341492 
	C192.885162,784.799988 211.408020,803.901062 230.851807,822.151489 
	C231.364822,822.633118 232.360596,822.600403 233.131271,822.807495 
	C233.131271,822.807495 233.171814,822.834473 233.193924,822.846985 
	C235.456787,825.339905 237.585114,827.936157 239.978806,830.258972 
	C241.510056,831.744995 243.503281,832.742126 245.164337,834.110291 
	C247.673264,836.176880 250.680389,838.712158 253.477371,836.316833 
	C255.260757,834.789612 255.863770,831.112671 255.870712,828.396667 
	C256.004486,776.073303 255.972839,723.749512 255.972595,671.425842 
	C255.972473,642.431213 255.970673,613.436523 255.962601,584.441895 
	C255.960220,575.883301 255.065750,575.009949 246.568649,575.011292 
	C231.071533,575.013733 215.574234,575.032166 200.077469,574.953979 
	C197.857254,574.942810 195.639557,574.429871 192.098282,573.981812 
	C194.577545,570.824585 196.084747,568.509338 197.976089,566.568542 
	C204.488235,559.885925 211.168808,553.367676 217.699265,546.702576 
	C218.918777,545.457947 219.741394,543.824585 220.640411,542.017578 
	C220.533615,541.664490 220.571518,541.698730 220.983856,541.768555 
	C222.264343,540.546631 223.132492,539.254822 224.000641,537.963013 
	C224.000641,537.963013 224.008347,538.005676 224.317200,537.971558 
	C224.990845,537.470825 225.355621,537.004150 225.720398,536.537476 
	C225.720398,536.537476 225.814926,536.727905 226.027130,536.705872 
	C226.398758,536.322510 226.558197,535.961182 226.717621,535.599854 
	C226.717621,535.599854 226.623642,535.731140 226.974854,535.756897 
	C227.737991,535.029541 228.149933,534.276367 228.561874,533.523254 
	C228.561874,533.523254 228.781097,533.848389 229.042786,533.814453 
	C230.203949,532.475342 231.103424,531.170227 232.002899,529.865112 
	C232.443253,529.293396 232.883591,528.721741 233.938354,528.049011 
	C234.943161,527.470520 235.333557,526.993042 235.723969,526.515564 
	C235.723953,526.515564 235.671890,526.713867 235.987946,526.755127 
	C237.532822,525.155945 238.761658,523.515503 239.990509,521.875061 
	C239.949921,521.523376 240.080368,521.254761 240.957855,521.002319 
	C241.937439,520.467712 242.341019,520.000061 242.744629,519.532471 
	C242.744629,519.532471 242.788956,519.789185 243.000671,519.730469 
	C243.467850,519.089783 243.723282,518.507812 243.978729,517.925781 
	C243.978729,517.925781 243.992004,517.992493 244.329514,517.986694 
	C248.725204,516.505005 251.923584,514.216125 252.624954,509.565826 
	C252.624954,509.565826 252.699997,509.705933 253.024002,509.760193 
	C254.229004,508.499664 255.110016,507.184906 255.991013,505.870117 
	C255.958664,505.525208 256.090942,505.263519 256.870331,504.932800 
	C257.563782,504.485596 257.774689,504.190582 257.985626,503.895569 
	C257.985626,503.895569 257.975403,503.978485 258.274902,503.944519 
	C259.033783,503.239197 259.493195,502.567841 259.952576,501.896484 
	C259.952576,501.896484 259.974304,501.974365 260.321991,501.969055 
	C261.778595,500.612610 262.887482,499.261475 263.996399,497.910309 
	C264.711456,496.967896 265.426514,496.025513 266.452576,494.869629 
	C266.763611,494.656158 266.843903,494.548828 266.909668,494.537109 
	C274.757263,494.337250 282.538361,494.032227 290.321045,493.986176 
	C304.747742,493.900787 319.176666,494.076447 333.601685,493.899323 
	C337.656006,493.849579 339.182220,495.088531 339.193359,499.300262 
	C339.396881,576.230286 339.840454,653.159729 339.979706,730.089844 
	C340.129883,813.045532 340.018311,896.001587 340.021362,978.957520 
	C340.021606,985.650208 339.268829,986.021057 333.246307,983.238037 
	C318.611115,976.475220 303.809509,970.066467 289.252258,963.142334 
	C263.247009,950.773132 239.360504,934.933533 216.229248,917.889282 
	C213.610336,915.959534 210.640854,914.505615 207.475983,912.758606 
	C206.379807,912.313110 205.641571,911.939941 204.995178,911.247070 
	C204.407486,910.269348 203.727997,909.611328 203.048508,908.953308 
	C203.048508,908.953308 202.997696,908.986938 202.985870,908.622986 
	C199.325653,905.497131 195.677246,902.735168 192.028839,899.973267 
	C191.718079,899.852722 191.461258,899.660278 191.113617,898.838013 
	C188.321381,896.177490 185.673874,894.074829 183.026367,891.972168 
	C183.026367,891.972168 183.000610,891.997559 182.986816,891.638916 
	C176.890762,885.333374 170.875214,879.316040 164.695908,873.471802 
	C161.923538,870.849731 158.823486,868.574097 155.872101,866.141235 
z"/>
<path fill="#3D43A6" opacity="1.000000" stroke="none" 
	d="
M252.295013,509.619019 
	C251.923584,514.216125 248.725204,516.505005 244.296387,517.979004 
	C246.605530,515.208862 249.285309,512.440552 252.295013,509.619019 
z"/>
<path fill="#3D43A6" opacity="1.000000" stroke="none" 
	d="
M239.682068,522.014526 
	C238.761658,523.515503 237.532822,525.155945 235.915619,526.682495 
	C236.809387,525.097046 238.091507,523.625549 239.682068,522.014526 
z"/>
<path fill="#3D43A6" opacity="1.000000" stroke="none" 
	d="
M263.685547,498.016479 
	C262.887482,499.261475 261.778595,500.612610 260.283722,501.956055 
	C261.056732,500.673065 262.215729,499.397827 263.685547,498.016479 
z"/>
<path fill="#3D43A6" opacity="1.000000" stroke="none" 
	d="
M223.697632,538.090271 
	C223.132492,539.254822 222.264343,540.546631 221.008575,541.774963 
	C221.545502,540.546814 222.470062,539.382202 223.697632,538.090271 
z"/>
<path fill="#3D43A6" opacity="1.000000" stroke="none" 
	d="
M231.692261,529.992249 
	C231.103424,531.170227 230.203949,532.475342 228.910828,533.669434 
	C229.471985,532.412048 230.426804,531.265686 231.692261,529.992249 
z"/>
<path fill="#3D43A6" opacity="1.000000" stroke="none" 
	d="
M255.681290,505.999573 
	C255.110016,507.184906 254.229004,508.499664 252.952820,509.724854 
	C253.495605,508.466553 254.433578,507.297791 255.681290,505.999573 
z"/>
<path fill="#3D43A6" opacity="1.000000" stroke="none" 
	d="
M228.255066,533.578247 
	C228.149933,534.276367 227.737991,535.029541 226.936462,535.685913 
	C227.013977,534.937195 227.481110,534.285217 228.255066,533.578247 
z"/>
<path fill="#3D43A6" opacity="1.000000" stroke="none" 
	d="
M259.658142,501.983887 
	C259.493195,502.567841 259.033783,503.239197 258.234253,503.934692 
	C258.384003,503.329712 258.873840,502.700500 259.658142,501.983887 
z"/>
<path fill="#3D43A6" opacity="1.000000" stroke="none" 
	d="
M243.675186,518.030334 
	C243.723282,518.507812 243.467850,519.089783 242.872360,519.708313 
	C242.812088,519.208191 243.091873,518.671509 243.675186,518.030334 
z"/>
<path fill="#3D43A6" opacity="1.000000" stroke="none" 
	d="
M242.420197,519.542847 
	C242.341019,520.000061 241.937439,520.467712 241.188904,520.959106 
	C241.261230,520.506287 241.678513,520.029724 242.420197,519.542847 
z"/>
<path fill="#3D43A6" opacity="1.000000" stroke="none" 
	d="
M235.399048,526.526245 
	C235.333557,526.993042 234.943161,527.470520 234.207809,527.978394 
	C234.266617,527.518188 234.670380,527.027527 235.399048,526.526245 
z"/>
<path fill="#3D43A6" opacity="1.000000" stroke="none" 
	d="
M225.410706,536.565796 
	C225.355621,537.004150 224.990845,537.470825 224.295547,537.970215 
	C224.343689,537.533325 224.722336,537.063782 225.410706,536.565796 
z"/>
<path fill="#3D43A6" opacity="1.000000" stroke="none" 
	d="
M226.412598,535.642456 
	C226.558197,535.961182 226.398758,536.322510 225.920898,536.710327 
	C225.770859,536.386169 225.939224,536.035583 226.412598,535.642456 
z"/>
<path fill="#3D43A6" opacity="1.000000" stroke="none" 
	d="
M257.706726,503.967285 
	C257.774689,504.190582 257.563782,504.485596 257.096130,504.886353 
	C257.035553,504.674377 257.231689,504.356720 257.706726,503.967285 
z"/>
<path fill="#3D43A6" opacity="1.000000" stroke="none" 
	d="
M144.960983,713.658081 
	C141.231354,708.481384 136.883057,703.251953 133.871277,697.341492 
	C127.031189,683.918335 120.595543,670.272034 114.502884,656.492065 
	C111.365295,649.395752 109.460205,641.764282 106.726532,634.476501 
	C104.471245,628.463989 100.654053,626.871094 94.061363,626.970703 
	C76.643532,627.234070 59.218773,627.001526 41.797314,627.082642 
	C35.382465,627.112549 28.969141,627.468567 21.443296,627.711792 
	C23.039251,634.018982 24.013140,639.344238 25.738119,644.413879 
	C31.394751,661.038574 36.600197,677.872559 43.352760,694.052856 
	C50.094707,710.207642 58.170902,725.838440 66.258377,741.388977 
	C73.350838,755.026306 80.878433,768.475342 88.948753,781.554016 
	C95.274467,791.805420 102.752457,801.343445 109.648430,811.247192 
	C110.950287,813.116821 111.922630,815.215881 113.056244,817.571045 
	C112.000893,817.268372 110.936302,816.603882 109.584396,815.821167 
	C103.482933,807.039917 97.638542,798.396973 91.860542,789.709839 
	C77.156654,767.602783 64.135384,744.541748 53.169830,720.359985 
	C46.600426,705.872925 39.800961,691.440857 34.240307,676.559753 
	C28.847448,662.127625 24.773300,647.192383 20.395241,632.396729 
	C18.716627,626.723877 20.220844,625.070190 26.103519,625.061707 
	C50.746513,625.026245 75.389732,625.081116 100.032471,624.993042 
	C104.058578,624.978638 106.695076,626.295837 107.756508,630.384766 
	C108.504562,633.266418 109.455124,636.104797 110.470337,638.906372 
	C119.192024,662.973633 129.376114,686.365173 142.612350,708.346741 
	C143.548706,709.901733 144.177368,711.642029 144.960983,713.658081 
z"/>
<path fill="#3D43A6" opacity="1.000000" stroke="none" 
	d="
M233.079468,822.477173 
	C232.360596,822.600403 231.364822,822.633118 230.851807,822.151489 
	C211.408020,803.901062 192.885162,784.799988 176.940308,763.341492 
	C176.559967,762.829590 176.385376,762.164856 176.140991,761.208252 
	C178.416916,763.175293 180.778000,765.408997 182.897079,767.852600 
	C192.111786,778.477966 201.023834,789.376709 210.510788,799.751038 
	C216.427719,806.221497 223.197647,811.909058 229.528671,818.006165 
	C230.823441,819.253052 231.867859,820.759827 233.079468,822.477173 
z"/>
<path fill="#3D43A6" opacity="1.000000" stroke="none" 
	d="
M163.087830,742.547974 
	C159.146942,737.708618 154.976654,732.655518 151.324097,727.252441 
	C148.873459,723.627258 147.156662,719.505981 145.138153,715.228516 
	C146.579956,716.575989 148.191132,718.177551 149.375671,720.049133 
	C154.016495,727.381592 158.522568,734.799316 163.087830,742.547974 
z"/>
<path fill="#3D43A6" opacity="1.000000" stroke="none" 
	d="
M175.959625,759.669067 
	C174.088669,758.292603 171.904205,756.787720 170.398209,754.775085 
	C167.742020,751.225342 165.499664,747.365967 163.097702,743.271851 
	C164.190109,743.600769 165.602249,744.057312 166.291061,745.027405 
	C169.618011,749.713135 172.750320,754.537109 175.959625,759.669067 
z"/>
<path fill="#3944DD" opacity="1.000000" stroke="none" 
	d="
M176.923340,685.059937 
	C168.310425,667.432495 159.747147,650.185669 151.485306,632.795715 
	C149.484055,628.583435 150.785446,626.902649 155.314178,626.868042 
	C167.420792,626.775513 179.529236,626.911133 191.635635,626.806458 
	C196.607208,626.763489 201.576477,626.355042 206.544861,626.077881 
	C210.044250,625.882690 212.357361,626.755127 212.199844,630.989380 
	C211.995575,636.480103 212.073944,641.984253 212.136200,647.481445 
	C212.398193,670.613708 212.748581,693.744995 212.945023,716.877747 
	C212.984253,721.496460 212.490707,726.119629 211.443436,730.954956 
	C197.198395,717.590881 187.294205,701.373779 176.923340,685.059937 
z"/>
<path fill="#3D43A6" opacity="1.000000" stroke="none" 
	d="
M155.922470,866.476990 
	C158.823486,868.574097 161.923538,870.849731 164.695908,873.471802 
	C170.875214,879.316040 176.890762,885.333374 183.000000,891.623962 
	C179.916443,889.587769 176.555115,887.469177 173.747040,884.774109 
	C167.671967,878.943665 161.880356,872.817810 155.922470,866.476990 
z"/>
<path fill="#3D43A6" opacity="1.000000" stroke="none" 
	d="
M131.045319,840.319519 
	C132.843185,841.310425 134.914719,842.409668 136.406387,844.039612 
	C140.052322,848.023254 143.430161,852.252258 146.903946,856.736267 
	C141.613022,851.616516 136.334106,846.142883 131.045319,840.319519 
z"/>
<path fill="#3D43A6" opacity="1.000000" stroke="none" 
	d="
M122.036369,829.332764 
	C125.024734,832.402649 128.027725,835.823669 131.030945,839.607971 
	C128.037781,836.542114 125.044395,833.112976 122.036369,829.332764 
z"/>
<path fill="#3D43A6" opacity="1.000000" stroke="none" 
	d="
M192.142822,900.292114 
	C195.677246,902.735168 199.325653,905.497131 203.009277,908.600891 
	C199.448608,906.165466 195.852707,903.388184 192.142822,900.292114 
z"/>
<path fill="#3D43A6" opacity="1.000000" stroke="none" 
	d="
M113.078377,818.292847 
	C115.685837,820.769470 118.290802,823.601440 120.861710,826.796387 
	C118.243721,824.322266 115.659805,821.485291 113.078377,818.292847 
z"/>
<path fill="#3D43A6" opacity="1.000000" stroke="none" 
	d="
M146.954651,857.444702 
	C149.574066,859.543030 152.238327,861.977844 154.882263,864.769165 
	C152.241119,862.677551 149.620316,860.229309 146.954651,857.444702 
z"/>
<path fill="#3D43A6" opacity="1.000000" stroke="none" 
	d="
M183.139236,892.288269 
	C185.673874,894.074829 188.321381,896.177490 190.994995,898.625732 
	C188.431458,896.848999 185.841782,894.726685 183.139236,892.288269 
z"/>
<path fill="#3D43A6" opacity="1.000000" stroke="none" 
	d="
M203.151703,909.280762 
	C203.727997,909.611328 204.407486,910.269348 204.854645,911.054382 
	C204.166504,910.656982 203.710709,910.132629 203.151703,909.280762 
z"/>
</svg>